<?xml version="1.0" encoding="UTF-8"?>
<svg xmlns="http://www.w3.org/2000/svg" xmlns:xlink="http://www.w3.org/1999/xlink" width="512" height="512" viewBox="0 0 60 60" version="1.1"><!-- Generator: Sketch 51.3 (57544) - http://www.bohemiancoding.com/sketch --><title>073 - Inner Dialogue</title><desc>Created with Sketch.</desc><defs/><g id="Page-1" stroke="none" stroke-width="1" fill="none" fill-rule="evenodd"><g id="073---Inner-Dialogue" transform="translate(-1.000000, 0.000000)" fill="#000000" fill-rule="nonzero"><path d="M58,0 L34,0 C32.6953218,0.00509299996 31.5442605,0.85473399 31.155,2.1 C28.6466062,0.936796279 25.9478178,0.238804551 23.19,0.04 L20.767,0.04 C20.61,0.048 5.036,0.878 4.411,14.493 C4.282,17.256 4.265,19.493 4.311,21.355 C3.68774949,21.0474593 2.9561043,21.0511639 2.336,21.365 C0.785,22.147 0.836,25.835 1.161,28.823 C1.62306639,31.5914998 3.19305632,34.0522821 5.509,35.638 C5.352,39.165 5.295,42.813 9.458,46.766 C9.842,47.13 10.189,47.494 10.513,47.856 L10.513,57 C10.513,58.6568542 11.8561458,60 13.513,60 L30.487,60 C32.1438542,60 33.487,58.6568542 33.487,57 L33.487,47.856 C33.811,47.493 34.158,47.129 34.542,46.765 C38.81,42.707 38.642,38.978 38.487,35.372 L38.471,35.016 C38.433,34.416 38.413,33.808 38.413,33.18 C38.4129298,32.450578 38.4647271,31.7220742 38.568,31 L42.54,31 C43.9009238,30.9961394 45.0016604,29.8909282 45,28.53 L45,22 L48.63,22 L55.349,27.759 C55.6454694,28.013258 56.0628343,28.0716466 56.4176967,27.9085088 C56.772559,27.745371 56.9999696,27.3905653 57,27 L57,22 L58,22 C59.6568542,22 61,20.6568542 61,19 L61,3 C61,1.34314575 59.6568542,1.01453063e-16 58,0 Z M3.148,28.578 C2.894,26.202 2.97,23.722 3.307,23.13 C3.591,23.094 4.141,23.601 4.444,24.025 C4.57649709,25.7747234 4.81022177,27.5153045 5.144,29.238 C5.42070333,30.5343374 5.57007968,31.85461 5.59,33.18 L5.59,33.19 C4.33419177,31.9306622 3.48374731,30.3244993 3.148,28.578 Z M31.484,57 C31.484,57.5522847 31.0362847,58 30.484,58 L13.513,58 C12.9607153,58 12.513,57.5522847 12.513,57 L12.513,50.459 C12.751,50.811 12.977,51.159 13.194,51.491 C14.783,53.933 16.155,56.04 19.627,56.04 L24.367,56.04 C27.839,56.04 29.211,53.933 30.8,51.491 C31.017,51.157 31.243,50.811 31.481,50.459 L31.484,57 Z M36.471,35.123 L36.486,35.46 C36.644,39.05 36.769,41.885 33.162,45.314 C31.6130448,46.8372796 30.2575158,48.5454611 29.126,50.4 C27.483,52.924 26.661,54.04 24.37,54.04 L19.63,54.04 C17.339,54.04 16.517,52.924 14.874,50.4 C13.7424842,48.5454611 12.3869552,46.8372796 10.838,45.314 C7.23,41.89 7.359,39.051 7.522,35.456 C7.556,34.712 7.59,33.956 7.59,33.18 C7.57012921,31.7343663 7.40869164,30.2941556 7.108,28.88 C6.624,26.211 6.021,22.89 6.408,14.58 C6.949,2.805 20.287,2.064 20.81,2.04 L23.146,2.04 C25.8834749,2.25795082 28.5517297,3.01011737 31,4.254 L31,15 L25.46,15 C24.1020648,15.001653 23.001653,16.1020648 23,17.46 L23,28.53 C22.9983396,29.8909282 24.0990762,30.9961394 25.46,31 L26,31 L26,34 C26.0000066,34.3837799 26.2196499,34.7336999 26.5652665,34.9005419 C26.910883,35.0673839 27.3214937,35.0217111 27.622,34.783 L32.389,31 L36.554,31 C36.4593434,31.722831 36.4112442,32.4509987 36.41,33.18 C36.41,33.853 36.431,34.5 36.471,35.123 Z M43,28.53 C42.9995272,28.7855015 42.7954322,28.9940333 42.54,29 L32.04,29 C31.8141085,29.0000049 31.5948731,29.0764906 31.418,29.217 L28,31.93 L28,30 C28,29.4477153 27.5522847,29 27,29 L25.46,29 C25.2045678,28.9940333 25.0004728,28.7855015 25,28.53 L25,17.46 C25.0032332,17.2073004 25.2073004,17.0032332 25.46,17 L31,17 L31,19 C31,20.6568542 32.3431458,22 34,22 L43,22 L43,28.53 Z M59,19 C59,19.5522847 58.5522847,20 58,20 L56,20 C55.4477153,20 55,20.4477153 55,21 L55,24.826 L49.651,20.241 C49.4697389,20.0855093 49.2388157,20.0000216 49,20 L34,20 C33.4477153,20 33,19.5522847 33,19 L33,3 C33,2.44771525 33.4477153,2 34,2 L58,2 C58.5522847,2 59,2.44771525 59,3 L59,19 Z" id="Shape"/><path d="M38,8 C36.3431458,8 35,9.34314575 35,11 C35,12.6568542 36.3431458,14 38,14 C39.6568542,14 41,12.6568542 41,11 C41,9.34314575 39.6568542,8 38,8 Z M38,12 C37.4477153,12 37,11.5522847 37,11 C37,10.4477153 37.4477153,10 38,10 C38.5522847,10 39,10.4477153 39,11 C39,11.5522847 38.5522847,12 38,12 Z" id="Shape"/><path d="M46,8 C44.3431458,8 43,9.34314575 43,11 C43,12.6568542 44.3431458,14 46,14 C47.6568542,14 49,12.6568542 49,11 C49,9.34314575 47.6568542,8 46,8 Z M46,12 C45.4477153,12 45,11.5522847 45,11 C45,10.4477153 45.4477153,10 46,10 C46.5522847,10 47,10.4477153 47,11 C47,11.5522847 46.5522847,12 46,12 Z" id="Shape"/><path d="M54,8 C52.3431458,8 51,9.34314575 51,11 C51,12.6568542 52.3431458,14 54,14 C55.6568542,14 57,12.6568542 57,11 C57,9.34314575 55.6568542,8 54,8 Z M54,12 C53.4477153,12 53,11.5522847 53,11 C53,10.4477153 53.4477153,10 54,10 C54.5522847,10 55,10.4477153 55,11 C55,11.5522847 54.5522847,12 54,12 Z" id="Shape"/></g></g></svg>
