<svg width="526" height="586" viewBox="0 0 526 586" fill="none" xmlns="http://www.w3.org/2000/svg">
<path d="M198 485V586H299V485H198ZM293.082 580.082H203.918V490.918H293.082V580.082Z" fill="white"/>
<path d="M240.038 520.823H225.787V554.438H232.321V543.17H240.275C246.1 543.17 250.738 538.097 250.738 531.997C250.738 526.82 246.56 520.823 240.038 520.823ZM239.896 537.441H232.321V526.552H239.612C242.385 526.552 244.109 529.156 244.109 531.997C244.109 535.303 242.188 537.441 239.896 537.441Z" fill="white"/>
<path d="M264.467 539.572C263.551 539.351 259.59 538.706 259.59 536.447C259.59 534.637 261.076 533.654 263.378 533.654C266.501 533.654 269.311 535.453 270.574 536.4L273.131 532.565C271.773 531.366 268.868 529.156 263.425 529.156C258.24 529.156 253.672 532.097 253.672 537.346C253.672 542.799 260.916 543.817 262.526 544.259C264.45 544.796 267.97 545.487 267.97 547.62C267.97 549.358 266.303 550.366 263.899 550.366C260.188 550.366 256.702 548.173 255.187 547.099L252.82 551.076C254.24 552.307 258.314 554.911 264.041 554.911C267.133 554.911 274.077 553.944 274.077 547.052C274.077 541.221 266.171 540.014 264.467 539.572Z" fill="white"/>
<g clip-path="url(#clip0)">
<path d="M85.7281 21.7318C85.3297 21.2924 84.7641 21.0419 84.1711 21.0415H16.8377C15.6756 21.0364 14.7293 21.9742 14.7242 23.1363C14.7238 23.2055 14.7269 23.2746 14.7334 23.3434L21.0459 90.6767C21.1274 91.5405 21.7306 92.2657 22.5651 92.5032L52.0233 100.92C52.2135 100.974 52.4106 101.001 52.6082 101C52.8339 101 53.0584 100.964 53.2732 100.895L78.5232 92.4779C79.3152 92.2144 79.8764 91.5078 79.954 90.6767L86.2665 23.3434C86.3219 22.7546 86.1262 22.1695 85.7281 21.7318Z" fill="white"/>
<path d="M52.6085 84.1667C52.4134 84.1655 52.2193 84.1371 52.0319 84.0825L37.3027 79.8742C36.5797 79.6685 36.0214 79.0924 35.8382 78.3633L33.7339 69.9466C33.4266 68.8259 34.0861 67.6682 35.2067 67.3608C36.3274 67.0535 37.4852 67.713 37.7925 68.8336C37.8012 68.865 37.8089 68.8964 37.816 68.9281L39.6255 76.1664L52.6081 79.8781L65.4014 76.221L69.1889 42.0872H31.5664C30.4043 42.0872 29.4622 41.145 29.4622 39.9829C29.4622 38.8208 30.4043 37.8787 31.5664 37.8787H71.5456C72.7077 37.8716 73.6554 38.808 73.6625 39.9701C73.6629 40.0518 73.6587 40.1333 73.6497 40.2143L69.4414 78.0893C69.3459 78.9376 68.7474 79.6442 67.9264 79.8779L53.1972 84.0862C53.006 84.1411 52.8076 84.1681 52.6085 84.1667Z" fill="black"/>
<path d="M69.4419 58.9167H33.6711C32.509 58.9167 31.5669 57.9746 31.5669 56.8125C31.5669 55.6504 32.509 54.7083 33.6711 54.7083H69.4419C70.604 54.7083 71.5461 55.6504 71.5461 56.8125C71.5461 57.9746 70.604 58.9167 69.4419 58.9167Z" fill="black"/>
<path d="M37.8794 12.6257H29.4626C28.3005 12.6257 27.3584 11.6836 27.3584 10.5215V2.10496C27.3586 0.942873 28.3005 0.000732422 29.4626 0.000732422H37.8794C39.0415 0.000732422 39.9836 0.942873 39.9836 2.10496C39.9836 3.26706 39.0415 4.2092 37.8794 4.2092H31.5669V8.41747H37.8794C39.0415 8.41747 39.9836 9.35961 39.9836 10.5217C39.9836 11.6838 39.0415 12.6257 37.8794 12.6257Z" fill="white"/>
<path d="M54.7126 12.625H46.2959C45.1338 12.625 44.1917 11.6828 44.1917 10.5207C44.1917 9.35863 45.1338 8.41649 46.2959 8.41649H49.633L44.8061 3.59374C43.9834 2.77312 43.9818 1.44078 44.8024 0.61799C45.1981 0.221288 45.7357 -0.0012272 46.2959 -0.000240876H54.7126C55.8747 -0.000240876 56.8169 0.9419 56.8169 2.10399C56.8169 3.26608 55.8747 4.20822 54.7126 4.20822H51.3755L56.1982 9.03097C57.021 9.8516 57.0226 11.1839 56.202 12.0067C55.8073 12.4024 55.2715 12.6248 54.7126 12.625Z" fill="white"/>
<path d="M71.5461 12.625H63.1294C61.9673 12.625 61.0252 11.6829 61.0252 10.5208C61.0252 9.35868 61.9673 8.41654 63.1294 8.41654H66.4665L61.6396 3.59399C60.8168 2.77336 60.8153 1.44103 61.6359 0.618234C62.0316 0.221533 62.5692 -0.000983063 63.1294 3.26508e-06H71.5461C72.7082 3.26508e-06 73.6504 0.942144 73.6504 2.10424C73.6504 3.26633 72.7082 4.20847 71.5461 4.20847H68.209L73.0317 9.03122C73.8545 9.85184 73.8561 11.1842 73.0355 12.007C72.6408 12.4025 72.1048 12.6248 71.5461 12.625Z" fill="white"/>
</g>
<path d="M38.4153 546.709V518.823H31.8818V552.438H55.5537V546.709H38.4153Z" fill="white"/>
<path d="M0 483V584H101V483H0ZM95.082 578.082H5.91797V488.918H95.082V578.082Z" fill="white"/>
<path d="M73.6865 533.121V527.345C67.9579 526.744 65.1802 532.08 64.7386 532.932V527.629H58.9153V552.437H65.2593V537.429C65.9222 536.009 68.1059 533.121 73.6865 533.121Z" fill="white"/>
<g clip-path="url(#clip1)">
<path d="M230.046 0.00012207C228.884 0.00012207 227.942 0.942261 227.942 2.10435V10.5211C227.942 11.6832 228.884 12.6253 230.046 12.6253C231.208 12.6253 232.15 11.6832 232.15 10.5211V2.10415C232.15 0.942064 231.208 0.00012207 230.046 0.00012207Z" fill="white"/>
<path d="M238.463 8.41671H230.046C228.884 8.41671 227.942 7.47457 227.942 6.31248C227.942 5.15039 228.884 4.20825 230.046 4.20825H238.463C239.625 4.20825 240.567 5.15039 240.567 6.31248C240.567 7.47457 239.625 8.41671 238.463 8.41671Z" fill="white"/>
<path d="M238.463 12.6252C237.301 12.6252 236.358 11.683 236.358 10.5209V2.10423C236.358 0.942139 237.301 0 238.463 0C239.625 0 240.567 0.942139 240.567 2.10423V10.5209C240.567 11.683 239.625 12.6252 238.463 12.6252Z" fill="white"/>
<path d="M255.296 4.20846H246.879C245.717 4.20846 244.775 3.26632 244.775 2.10423C244.775 0.942139 245.717 0 246.879 0H255.296C256.458 0 257.4 0.942139 257.4 2.10423C257.4 3.26632 256.458 4.20846 255.296 4.20846Z" fill="white"/>
<path d="M251.088 12.6252C249.926 12.6252 248.983 11.683 248.983 10.5209V2.10423C248.983 0.942139 249.926 0 251.088 0C252.25 0 253.192 0.942139 253.192 2.10423V10.5209C253.192 11.683 252.25 12.6252 251.088 12.6252Z" fill="white"/>
<path d="M276.338 12.6251C275.175 12.6251 274.233 11.683 274.233 10.5209V8.41665L271.708 11.7834C270.943 12.7131 269.57 12.8466 268.64 12.0816C268.531 11.9921 268.431 11.8923 268.342 11.7834L265.817 8.41665V10.5209C265.817 11.683 264.874 12.6251 263.712 12.6251C262.55 12.6251 261.608 11.683 261.608 10.5209V2.10416C261.608 0.942075 262.55 -6.40738e-05 263.712 -6.40738e-05C264.375 -6.40738e-05 264.998 0.311812 265.396 0.841667L270.025 7.01114L274.654 0.841667C275.351 -0.0880443 276.67 -0.276433 277.6 0.4209C278.13 0.818192 278.442 1.44194 278.442 2.10416V10.5209C278.442 11.683 277.5 12.6251 276.338 12.6251Z" fill="white"/>
<path d="M291.067 12.6252H284.754C283.592 12.6252 282.65 11.683 282.65 10.5209V2.10423C282.65 0.942139 283.592 0 284.754 0C285.916 0 286.859 0.942139 286.859 2.10423V8.41672H291.067C292.229 8.41672 293.171 9.35885 293.171 10.5209C293.171 11.683 292.229 12.6252 291.067 12.6252Z" fill="white"/>
<path d="M294.728 21.732C294.33 21.2927 293.764 21.0422 293.171 21.0418H225.838C224.676 21.0366 223.729 21.9744 223.724 23.1365C223.724 23.2058 223.727 23.2748 223.733 23.3437L230.046 90.6768C230.127 91.5406 230.731 92.2658 231.565 92.5033L261.023 100.92C261.213 100.974 261.41 101.001 261.608 101C261.834 101 262.058 100.964 262.273 100.895L287.523 92.478C288.315 92.2145 288.876 91.5079 288.954 90.6768L295.266 23.3437C295.322 22.7546 295.126 22.1695 294.728 21.732Z" fill="white"/>
<path d="M261.608 84.1665C261.413 84.1653 261.219 84.1369 261.032 84.0823L246.303 79.874C245.58 79.6683 245.021 79.0923 244.838 78.3632L242.734 69.9465C242.427 68.8258 243.086 67.6681 244.207 67.3607C245.327 67.0534 246.485 67.7128 246.792 68.8335C246.801 68.8649 246.809 68.8962 246.816 68.928L248.625 76.1662L261.562 79.8612L272.276 76.2884L274.01 58.9164H242.671C241.605 58.9249 240.701 58.1348 240.567 57.0773L238.462 40.2441C238.316 39.0912 239.132 38.038 240.284 37.8915C240.378 37.8796 240.472 37.8739 240.566 37.8747H280.546C281.708 37.8747 282.65 38.8168 282.65 39.9789C282.65 41.141 281.708 42.0832 280.546 42.0832H242.949L244.527 54.7081H276.337C277.5 54.7022 278.446 55.6396 278.452 56.8017C278.453 56.8755 278.449 56.9493 278.442 57.0226L276.337 78.0643C276.256 78.8895 275.697 79.5898 274.911 79.8529L262.286 84.0612C262.067 84.132 261.838 84.1677 261.608 84.1665Z" fill="black"/>
</g>
<path d="M486.975 13.6184C486.829 13.4719 486.655 13.3557 486.463 13.2764C486.272 13.1971 486.067 13.1562 485.859 13.1563H441.672C438.743 13.1595 435.935 14.3245 433.864 16.3954C431.793 18.4664 430.628 21.2743 430.625 24.2031V96.7969C430.628 99.7257 431.793 102.534 433.864 104.605C435.935 106.676 438.743 107.84 441.672 107.844H495.328C498.257 107.84 501.065 106.676 503.136 104.605C505.207 102.534 506.372 99.7257 506.375 96.7969V33.6719C506.375 33.4646 506.334 33.2594 506.255 33.0679C506.176 32.8765 506.059 32.7025 505.913 32.5559L486.975 13.6184ZM487.438 18.5442L500.987 32.0938H495.328C493.236 32.0914 491.23 31.2593 489.751 29.78C488.272 28.3008 487.44 26.2951 487.438 24.2031V18.5442ZM441.672 16.3125H484.281V24.2031C484.285 27.1319 485.449 29.9398 487.52 32.0108C489.591 34.0818 492.399 35.2467 495.328 35.25H503.219V79.4375H433.781V24.2031C433.784 22.1111 434.616 20.1055 436.095 18.6262C437.574 17.1469 439.58 16.3148 441.672 16.3125ZM495.328 104.688H441.672C439.58 104.685 437.574 103.853 436.095 102.374C434.616 100.895 433.784 98.8889 433.781 96.7969V82.5938H503.219V96.7969C503.216 98.8889 502.384 100.895 500.905 102.374C499.426 103.853 497.42 104.685 495.328 104.688Z" fill="white"/>
<path d="M465.344 85.75C464.925 85.75 464.524 85.9163 464.228 86.2122C463.932 86.5082 463.766 86.9096 463.766 87.3281V96.7969C463.766 97.2154 463.599 97.6168 463.303 97.9128C463.007 98.2087 462.606 98.375 462.188 98.375C461.769 98.375 461.368 98.2087 461.072 97.9128C460.776 97.6168 460.609 97.2154 460.609 96.7969C460.609 96.3783 460.443 95.9769 460.147 95.681C459.851 95.385 459.45 95.2188 459.031 95.2188C458.613 95.2188 458.211 95.385 457.915 95.681C457.619 95.9769 457.453 96.3783 457.453 96.7969C457.453 98.0525 457.952 99.2567 458.84 100.145C459.728 101.032 460.932 101.531 462.188 101.531C463.443 101.531 464.647 101.032 465.535 100.145C466.423 99.2567 466.922 98.0525 466.922 96.7969V87.3281C466.922 86.9096 466.756 86.5082 466.46 86.2122C466.164 85.9163 465.762 85.75 465.344 85.75Z" fill="white"/>
<path d="M474.812 88.9062H477.969C478.387 88.9062 478.789 88.74 479.085 88.444C479.381 88.1481 479.547 87.7467 479.547 87.3281C479.547 86.9096 479.381 86.5082 479.085 86.2122C478.789 85.9163 478.387 85.75 477.969 85.75H474.812C473.557 85.75 472.353 86.2488 471.465 87.1367C470.577 88.0245 470.078 89.2287 470.078 90.4844C470.078 91.74 470.577 92.9442 471.465 93.8321C472.353 94.7199 473.557 95.2188 474.812 95.2188C475.231 95.2188 475.632 95.385 475.928 95.681C476.224 95.9769 476.391 96.3783 476.391 96.7969C476.391 97.2154 476.224 97.6168 475.928 97.9128C475.632 98.2087 475.231 98.375 474.812 98.375H471.656C471.238 98.375 470.836 98.5413 470.54 98.8372C470.244 99.1332 470.078 99.5346 470.078 99.9531C470.078 100.372 470.244 100.773 470.54 101.069C470.836 101.365 471.238 101.531 471.656 101.531H474.812C476.068 101.531 477.272 101.032 478.16 100.145C479.048 99.2567 479.547 98.0525 479.547 96.7969C479.547 95.5412 479.048 94.337 478.16 93.4492C477.272 92.5613 476.068 92.0625 474.812 92.0625C474.394 92.0625 473.993 91.8962 473.697 91.6003C473.401 91.3043 473.234 90.9029 473.234 90.4844C473.234 90.0658 473.401 89.6644 473.697 89.3685C473.993 89.0725 474.394 88.9062 474.812 88.9062Z" fill="white"/>
<path d="M474.812 54.1875C475.684 54.1875 476.391 53.4809 476.391 52.6094C476.391 51.7378 475.684 51.0312 474.812 51.0312C473.941 51.0312 473.234 51.7378 473.234 52.6094C473.234 53.4809 473.941 54.1875 474.812 54.1875Z" fill="white"/>
<path d="M462.188 54.1875C463.059 54.1875 463.766 53.4809 463.766 52.6094C463.766 51.7378 463.059 51.0312 462.188 51.0312C461.316 51.0312 460.609 51.7378 460.609 52.6094C460.609 53.4809 461.316 54.1875 462.188 54.1875Z" fill="white"/>
<path d="M468.5 54.1875C469.372 54.1875 470.078 53.4809 470.078 52.6094C470.078 51.7378 469.372 51.0312 468.5 51.0312C467.628 51.0312 466.922 51.7378 466.922 52.6094C466.922 53.4809 467.628 54.1875 468.5 54.1875Z" fill="white"/>
<path d="M447.984 54.1875C448.403 54.188 448.804 54.3544 449.1 54.6502C449.396 54.9461 449.562 55.3472 449.562 55.7656V62.0781C449.564 63.3333 450.063 64.5367 450.951 65.4242C451.838 66.3118 453.042 66.811 454.297 66.8125C454.715 66.8125 455.117 66.6462 455.413 66.3503C455.709 66.0543 455.875 65.6529 455.875 65.2344C455.875 64.8158 455.709 64.4144 455.413 64.1185C455.117 63.8225 454.715 63.6562 454.297 63.6562C453.878 63.6558 453.477 63.4894 453.181 63.1935C452.886 62.8977 452.719 62.4965 452.719 62.0781V55.7656C452.72 54.6004 452.289 53.476 451.51 52.6094C452.289 51.7428 452.72 50.6184 452.719 49.4531V43.1406C452.719 42.7222 452.886 42.3211 453.181 42.0252C453.477 41.7294 453.878 41.563 454.297 41.5625C454.715 41.5625 455.117 41.3962 455.413 41.1003C455.709 40.8043 455.875 40.4029 455.875 39.9844C455.875 39.5658 455.709 39.1644 455.413 38.8685C455.117 38.5725 454.715 38.4062 454.297 38.4062C453.042 38.4077 451.838 38.907 450.951 39.7945C450.063 40.6821 449.564 41.8854 449.562 43.1406V49.4531C449.562 49.8715 449.396 50.2727 449.1 50.5685C448.804 50.8644 448.403 51.0308 447.984 51.0312C447.566 51.0312 447.164 51.1975 446.868 51.4935C446.573 51.7894 446.406 52.1908 446.406 52.6094C446.406 53.0279 446.573 53.4293 446.868 53.7253C447.164 54.0212 447.566 54.1875 447.984 54.1875Z" fill="white"/>
<path d="M484.281 62.0781C484.281 62.4965 484.114 62.8977 483.819 63.1935C483.523 63.4894 483.122 63.6558 482.703 63.6562C482.285 63.6562 481.883 63.8225 481.587 64.1185C481.291 64.4144 481.125 64.8158 481.125 65.2344C481.125 65.6529 481.291 66.0543 481.587 66.3503C481.883 66.6462 482.285 66.8125 482.703 66.8125C483.958 66.811 485.162 66.3118 486.049 65.4242C486.937 64.5367 487.436 63.3333 487.438 62.0781V55.7656C487.438 55.3472 487.604 54.9461 487.9 54.6502C488.196 54.3544 488.597 54.188 489.016 54.1875C489.434 54.1875 489.836 54.0212 490.132 53.7253C490.427 53.4293 490.594 53.0279 490.594 52.6094C490.594 52.1908 490.427 51.7894 490.132 51.4935C489.836 51.1975 489.434 51.0312 489.016 51.0312C488.597 51.0308 488.196 50.8644 487.9 50.5685C487.604 50.2727 487.438 49.8715 487.438 49.4531V43.1406C487.436 41.8854 486.937 40.6821 486.049 39.7945C485.162 38.907 483.958 38.4077 482.703 38.4062C482.285 38.4063 481.883 38.5725 481.587 38.8685C481.291 39.1644 481.125 39.5658 481.125 39.9844C481.125 40.4029 481.291 40.8043 481.587 41.1003C481.883 41.3962 482.285 41.5625 482.703 41.5625C483.122 41.563 483.523 41.7294 483.819 42.0252C484.114 42.3211 484.281 42.7222 484.281 43.1406V49.4531C484.28 50.6184 484.711 51.7428 485.49 52.6094C484.711 53.476 484.28 54.6004 484.281 55.7656V62.0781Z" fill="white"/>
<g clip-path="url(#clip2)">
<path d="M256.5 257C241.596 257 225.761 261.615 225.761 270.174V309.696C225.761 318.347 241.223 322.87 256.5 322.87C271.777 322.87 287.239 318.347 287.239 309.696V270.174C287.239 261.615 271.404 257 256.5 257ZM282.848 309.696C282.848 313.85 272.027 318.478 256.5 318.478C240.972 318.478 230.152 313.85 230.152 309.696V303.539C235.891 307.57 246.4 309.696 256.5 309.696C266.6 309.696 277.108 307.57 282.848 303.539V309.696ZM282.848 296.522C282.848 300.188 272.822 305.304 256.5 305.304C240.177 305.304 230.152 300.189 230.152 296.522V290.365C235.891 294.396 246.4 296.522 256.5 296.522C266.6 296.522 277.108 294.396 282.848 290.365V296.522ZM282.848 283.348C282.848 287.014 272.822 292.13 256.5 292.13C240.177 292.13 230.152 287.015 230.152 283.348V277.191C235.891 281.222 246.4 283.348 256.5 283.348C266.6 283.348 277.108 281.222 282.848 277.191V283.348ZM256.5 278.957C240.177 278.957 230.152 273.841 230.152 270.174C230.152 266.507 240.177 261.391 256.5 261.391C272.822 261.391 282.848 266.507 282.848 270.174C282.848 273.841 272.822 278.957 256.5 278.957Z" fill="white"/>
<path d="M257.185 336.127L256.535 336.017C252.684 335.389 252.109 334.388 252.109 333.848C252.109 332.974 253.861 331.652 256.504 331.652C259.1 331.652 260.812 332.886 260.9 333.773C261.014 334.981 262.082 335.911 263.294 335.749C264.501 335.635 265.384 334.563 265.27 333.356C264.936 329.878 261.168 327.256 256.5 327.256C251.573 327.256 247.713 330.15 247.713 333.843C247.713 337.282 250.44 339.468 255.824 340.347L256.18 338.182L256.474 340.457C260.123 341.058 260.887 341.972 260.887 342.63C260.887 343.504 259.135 344.826 256.491 344.826C253.896 344.826 252.183 343.588 252.096 342.701C251.981 341.493 250.941 340.593 249.702 340.725C248.495 340.839 247.612 341.91 247.726 343.118C248.06 346.596 251.828 349.217 256.496 349.217C261.423 349.217 265.283 346.323 265.283 342.63C265.283 339.196 262.56 337.009 257.185 336.127Z" fill="white"/>
<path d="M287.239 333.848C287.239 330.216 284.284 327.261 280.652 327.261H276.261C272.629 327.261 269.674 330.216 269.674 333.848V342.63C269.674 346.262 272.629 349.217 276.261 349.217H280.652C281.667 349.217 282.615 348.967 283.471 348.559L283.489 348.576C283.919 349.002 284.481 349.217 285.043 349.217C285.606 349.217 286.168 349.002 286.594 348.576C287.45 347.72 287.45 346.328 286.594 345.471L286.576 345.454C286.989 344.598 287.239 343.645 287.239 342.63V333.848ZM282.848 341.726L282.202 341.08C281.346 340.224 279.954 340.224 279.098 341.08C278.241 341.936 278.241 343.329 279.098 344.185L279.739 344.826H276.261C275.049 344.826 274.065 343.842 274.065 342.63V333.848C274.065 332.636 275.049 331.652 276.261 331.652H280.652C281.864 331.652 282.848 332.636 282.848 333.848V341.726Z" fill="white"/>
<path d="M302.609 344.826H296.022V329.456C296.022 328.244 295.038 327.261 293.826 327.261C292.614 327.261 291.63 328.244 291.63 329.456V347.022C291.63 348.234 292.614 349.217 293.826 349.217H302.609C303.821 349.217 304.804 348.234 304.804 347.022C304.804 345.81 303.821 344.826 302.609 344.826Z" fill="white"/>
<path d="M242.114 336.272C241.025 335.732 239.712 336.171 239.168 337.255L236.739 342.117L234.311 337.26C233.766 336.175 232.449 335.736 231.364 336.276C230.28 336.821 229.836 338.138 230.381 339.223L234.284 347.026L230.385 354.821C229.845 355.905 230.284 357.223 231.369 357.767C231.685 357.925 232.018 358 232.348 358C233.151 358 233.924 357.556 234.315 356.784L243.098 339.219C243.638 338.134 243.199 336.816 242.114 336.272Z" fill="white"/>
<path d="M224.259 327.375C223.368 327.072 222.375 327.384 221.809 328.139L216.978 334.577L212.148 328.139C211.581 327.384 210.602 327.072 209.698 327.375C208.802 327.674 208.196 328.512 208.196 329.456V347.022C208.196 348.234 209.18 349.217 210.392 349.217C211.604 349.217 212.587 348.234 212.587 347.022V336.043L215.222 339.556C216.052 340.663 217.909 340.663 218.735 339.556L221.37 336.043V347.022C221.37 348.234 222.353 349.217 223.565 349.217C224.777 349.217 225.761 348.234 225.761 347.022V329.456C225.761 328.512 225.155 327.674 224.259 327.375Z" fill="white"/>
</g>
<g clip-path="url(#clip3)">
<path d="M75.75 348C75.4723 348 75.1945 347.945 74.9336 347.836C73.932 347.411 50.5 337.286 50.5 316.589V299.002C50.5 298.098 51.0765 297.298 51.9308 297.008L75.0767 289.193C75.5143 289.045 75.9899 289.045 76.4233 289.193L99.5692 297.008C100.423 297.294 101 298.098 101 299.002V316.589C101 337.286 77.568 347.411 76.5664 347.836C76.3055 347.945 76.0278 348 75.75 348ZM54.7083 300.517V316.589C54.7083 332.513 71.7731 341.662 75.75 343.577C79.7227 341.658 96.7917 332.471 96.7917 316.589V300.517L75.75 293.409L54.7083 300.517Z" fill="white"/>
<path d="M73.6458 326.958C73.6079 326.958 73.5658 326.958 73.5322 326.954C72.9304 326.92 72.3791 326.638 72.0045 326.167L63.5879 315.646C62.864 314.737 63.0071 313.416 63.9161 312.688C64.8293 311.968 66.1507 312.111 66.8746 313.016L73.8183 321.698L86.8852 308.635C87.7058 307.814 89.0399 307.814 89.8605 308.635C90.6811 309.456 90.6811 310.79 89.8605 311.61L75.1313 326.34C74.7399 326.735 74.2013 326.958 73.6458 326.958Z" fill="white"/>
<path d="M53.4459 348H18.9376C13.1343 348 8.41675 343.282 8.41675 337.479V257.521C8.41675 251.718 13.1343 247 18.9376 247H82.0626C87.8659 247 92.5834 251.718 92.5834 257.521V282.813C92.5834 283.974 91.6408 284.917 90.4792 284.917C89.3177 284.917 88.3751 283.974 88.3751 282.813V257.521C88.3751 254.041 85.5429 251.208 82.0626 251.208H18.9376C15.4573 251.208 12.6251 254.041 12.6251 257.521V337.479C12.6251 340.959 15.4573 343.792 18.9376 343.792H53.4459C54.6074 343.792 55.5501 344.734 55.5501 345.896C55.5501 347.057 54.6116 348 53.4459 348Z" fill="white"/>
<path d="M23.1459 284.875C21.9844 284.875 21.0417 283.932 21.0417 282.771V261.729C21.0417 260.568 21.9844 259.625 23.1459 259.625H29.4584C34.1002 259.625 37.8751 263.4 37.8751 268.042C37.8751 272.683 34.1002 276.458 29.4584 276.458H25.2501V282.771C25.2501 283.932 24.3074 284.875 23.1459 284.875ZM25.2501 272.25H29.4584C31.7814 272.25 33.6667 270.365 33.6667 268.042C33.6667 265.719 31.7814 263.833 29.4584 263.833H25.2501V272.25Z" fill="white"/>
<path d="M65.2292 284.875C64.0677 284.875 63.125 283.932 63.125 282.771V261.729C63.125 260.568 64.0677 259.625 65.2292 259.625H71.5417C76.1835 259.625 79.9583 263.4 79.9583 268.042C79.9583 272.683 76.1835 276.458 71.5417 276.458H67.3333V282.771C67.3333 283.932 66.3907 284.875 65.2292 284.875ZM67.3333 272.25H71.5417C73.8647 272.25 75.75 270.365 75.75 268.042C75.75 265.719 73.8647 263.833 71.5417 263.833H67.3333V272.25Z" fill="white"/>
<path d="M56.8124 284.875C55.6509 284.875 54.7083 283.932 54.7083 282.771V261.729C54.7083 260.568 55.6509 259.625 56.8124 259.625C57.9739 259.625 58.9166 260.568 58.9166 261.729V282.771C58.9166 283.932 57.9739 284.875 56.8124 284.875Z" fill="white"/>
<path d="M55.7605 276.458H45.2397C44.0782 276.458 43.1355 275.516 43.1355 274.354C43.1355 273.193 44.0782 272.25 45.2397 272.25H55.7605C56.922 272.25 57.8647 273.193 57.8647 274.354C57.8647 275.516 56.922 276.458 55.7605 276.458Z" fill="white"/>
<path d="M44.1874 284.875C43.0259 284.875 42.0833 283.932 42.0833 282.771V261.729C42.0833 260.568 43.0259 259.625 44.1874 259.625C45.3489 259.625 46.2916 260.568 46.2916 261.729V282.771C46.2916 283.932 45.3489 284.875 44.1874 284.875Z" fill="white"/>
</g>
<path d="M522.844 346.172V279.891C522.842 278.635 522.343 277.432 521.455 276.545C520.568 275.657 519.365 275.158 518.109 275.156H432.891C431.635 275.158 430.432 275.657 429.545 276.545C428.657 277.432 428.158 278.635 428.156 279.891V346.172C428.158 347.427 428.657 348.63 429.545 349.518C430.432 350.406 431.635 350.905 432.891 350.906H464.168L461.538 366.688H454.984C454.566 366.688 454.164 366.854 453.868 367.15C453.573 367.446 453.406 367.847 453.406 368.266C453.406 368.684 453.573 369.086 453.868 369.382C454.164 369.677 454.566 369.844 454.984 369.844H496.016C496.434 369.844 496.836 369.677 497.132 369.382C497.427 369.086 497.594 368.684 497.594 368.266C497.594 367.847 497.427 367.446 497.132 367.15C496.836 366.854 496.434 366.688 496.016 366.688H489.462L486.832 350.906H500.367L514.094 364.634C514.982 365.522 516.186 366.02 517.442 366.02C518.698 366.02 519.902 365.522 520.79 364.634C521.676 363.745 522.174 362.541 522.174 361.286C522.174 360.031 521.676 358.827 520.79 357.938L513.757 350.906H518.109C519.365 350.905 520.568 350.406 521.455 349.518C522.343 348.63 522.842 347.427 522.844 346.172ZM488.429 334.505L490.661 332.273L497.356 338.968L495.124 341.201L488.429 334.505ZM485.714 332.757L481.403 331.679C480.555 331.47 479.782 331.029 479.171 330.406C478.559 329.783 478.132 329.002 477.938 328.151L476.027 319.871L484.307 321.782C485.158 321.976 485.939 322.403 486.562 323.014C487.185 323.626 487.626 324.399 487.835 325.247L488.913 329.557L485.714 332.757ZM492.085 329.234L490.897 324.48C490.548 323.068 489.813 321.779 488.775 320.76C487.736 319.74 486.435 319.029 485.016 318.706L474.277 316.228C474.016 316.168 473.744 316.175 473.487 316.249C473.23 316.322 472.995 316.46 472.806 316.65C472.617 316.839 472.479 317.073 472.405 317.331C472.331 317.588 472.324 317.86 472.384 318.121L474.863 328.86C475.124 329.993 475.632 331.055 476.351 331.969H431.312V290.938H519.688V331.969H494.82L492.085 329.234ZM432.891 278.312H518.109C518.528 278.313 518.929 278.479 519.225 278.775C519.521 279.071 519.687 279.472 519.688 279.891V287.781H431.312V279.891C431.313 279.472 431.479 279.071 431.775 278.775C432.071 278.479 432.472 278.313 432.891 278.312ZM486.262 366.688H464.738L467.368 350.906H483.632L486.262 366.688ZM432.891 347.75C432.472 347.75 432.071 347.583 431.775 347.287C431.479 346.991 431.313 346.59 431.312 346.172V335.125H482.173L485.39 335.929L497.21 347.75H432.891ZM518.558 362.402C518.411 362.548 518.237 362.665 518.046 362.744C517.854 362.823 517.649 362.864 517.442 362.864C517.235 362.864 517.029 362.823 516.838 362.744C516.646 362.665 516.472 362.548 516.326 362.402L497.356 343.432L499.588 341.201L518.558 360.171C518.853 360.467 519.019 360.868 519.019 361.286C519.019 361.705 518.853 362.106 518.558 362.402ZM497.976 335.125H519.688V346.172C519.687 346.59 519.521 346.991 519.225 347.287C518.929 347.583 518.528 347.75 518.109 347.75H510.601L497.976 335.125Z" fill="white"/>
<path d="M478.656 338.281H472.344C471.925 338.281 471.524 338.448 471.228 338.743C470.932 339.039 470.766 339.441 470.766 339.859C470.766 340.278 470.932 340.679 471.228 340.975C471.524 341.271 471.925 341.438 472.344 341.438H478.656C479.075 341.438 479.476 341.271 479.772 340.975C480.068 340.679 480.234 340.278 480.234 339.859C480.234 339.441 480.068 339.039 479.772 338.743C479.476 338.448 479.075 338.281 478.656 338.281Z" fill="white"/>
<path d="M436.047 284.625C436.918 284.625 437.625 283.918 437.625 283.047C437.625 282.175 436.918 281.469 436.047 281.469C435.175 281.469 434.469 282.175 434.469 283.047C434.469 283.918 435.175 284.625 436.047 284.625Z" fill="white"/>
<path d="M442.359 284.625C443.231 284.625 443.938 283.918 443.938 283.047C443.938 282.175 443.231 281.469 442.359 281.469C441.488 281.469 440.781 282.175 440.781 283.047C440.781 283.918 441.488 284.625 442.359 284.625Z" fill="white"/>
<path d="M448.672 284.625C449.543 284.625 450.25 283.918 450.25 283.047C450.25 282.175 449.543 281.469 448.672 281.469C447.8 281.469 447.094 282.175 447.094 283.047C447.094 283.918 447.8 284.625 448.672 284.625Z" fill="white"/>
<path d="M445.516 297.25H448.672C449.09 297.25 449.492 297.084 449.788 296.788C450.084 296.492 450.25 296.09 450.25 295.672C450.25 295.253 450.084 294.852 449.788 294.556C449.492 294.26 449.09 294.094 448.672 294.094H445.516C445.097 294.094 444.696 294.26 444.4 294.556C444.104 294.852 443.938 295.253 443.938 295.672C443.938 296.09 444.104 296.492 444.4 296.788C444.696 297.084 445.097 297.25 445.516 297.25Z" fill="white"/>
<path d="M454.984 297.25H458.141C458.559 297.25 458.961 297.084 459.257 296.788C459.552 296.492 459.719 296.09 459.719 295.672C459.719 295.253 459.552 294.852 459.257 294.556C458.961 294.26 458.559 294.094 458.141 294.094H454.984C454.566 294.094 454.164 294.26 453.868 294.556C453.573 294.852 453.406 295.253 453.406 295.672C453.406 296.09 453.573 296.492 453.868 296.788C454.164 297.084 454.566 297.25 454.984 297.25Z" fill="white"/>
<path d="M439.203 325.656H437.625V324.078C437.625 323.66 437.459 323.258 437.163 322.962C436.867 322.666 436.465 322.5 436.047 322.5C435.628 322.5 435.227 322.666 434.931 322.962C434.635 323.258 434.469 323.66 434.469 324.078V327.234C434.469 327.653 434.635 328.054 434.931 328.35C435.227 328.646 435.628 328.812 436.047 328.812H439.203C439.622 328.812 440.023 328.646 440.319 328.35C440.615 328.054 440.781 327.653 440.781 327.234C440.781 326.816 440.615 326.414 440.319 326.118C440.023 325.823 439.622 325.656 439.203 325.656Z" fill="white"/>
<path d="M448.672 325.656H445.516C445.097 325.656 444.696 325.823 444.4 326.118C444.104 326.414 443.938 326.816 443.938 327.234C443.938 327.653 444.104 328.054 444.4 328.35C444.696 328.646 445.097 328.812 445.516 328.812H448.672C449.09 328.812 449.492 328.646 449.788 328.35C450.084 328.054 450.25 327.653 450.25 327.234C450.25 326.816 450.084 326.414 449.788 326.118C449.492 325.823 449.09 325.656 448.672 325.656Z" fill="white"/>
<path d="M458.141 325.656H454.984C454.566 325.656 454.164 325.823 453.868 326.118C453.573 326.414 453.406 326.816 453.406 327.234C453.406 327.653 453.573 328.054 453.868 328.35C454.164 328.646 454.566 328.812 454.984 328.812H458.141C458.559 328.812 458.961 328.646 459.257 328.35C459.552 328.054 459.719 327.653 459.719 327.234C459.719 326.816 459.552 326.414 459.257 326.118C458.961 325.823 458.559 325.656 458.141 325.656Z" fill="white"/>
<path d="M467.609 294.094H464.453C464.035 294.094 463.633 294.26 463.337 294.556C463.041 294.852 462.875 295.253 462.875 295.672C462.875 296.09 463.041 296.492 463.337 296.788C463.633 297.084 464.035 297.25 464.453 297.25H466.031V298.828C466.031 299.247 466.198 299.648 466.493 299.944C466.789 300.24 467.191 300.406 467.609 300.406C468.028 300.406 468.429 300.24 468.725 299.944C469.021 299.648 469.188 299.247 469.188 298.828V295.672C469.188 295.253 469.021 294.852 468.725 294.556C468.429 294.26 468.028 294.094 467.609 294.094Z" fill="white"/>
<path d="M467.609 303.562C467.191 303.562 466.789 303.729 466.493 304.025C466.198 304.321 466.031 304.722 466.031 305.141V308.297C466.031 308.715 466.198 309.117 466.493 309.413C466.789 309.709 467.191 309.875 467.609 309.875C468.028 309.875 468.429 309.709 468.725 309.413C469.021 309.117 469.188 308.715 469.188 308.297V305.141C469.188 304.722 469.021 304.321 468.725 304.025C468.429 303.729 468.028 303.562 467.609 303.562Z" fill="white"/>
<path d="M467.609 313.031C467.191 313.031 466.789 313.198 466.493 313.493C466.198 313.789 466.031 314.191 466.031 314.609V317.766C466.031 318.184 466.198 318.586 466.493 318.882C466.789 319.177 467.191 319.344 467.609 319.344C468.028 319.344 468.429 319.177 468.725 318.882C469.021 318.586 469.188 318.184 469.188 317.766V314.609C469.188 314.191 469.021 313.789 468.725 313.493C468.429 313.198 468.028 313.031 467.609 313.031Z" fill="white"/>
<path d="M467.609 322.5C467.191 322.5 466.789 322.666 466.493 322.962C466.198 323.258 466.031 323.66 466.031 324.078V325.656H464.453C464.035 325.656 463.633 325.823 463.337 326.118C463.041 326.414 462.875 326.816 462.875 327.234C462.875 327.653 463.041 328.054 463.337 328.35C463.633 328.646 464.035 328.812 464.453 328.812H467.609C468.028 328.812 468.429 328.646 468.725 328.35C469.021 328.054 469.188 327.653 469.188 327.234V324.078C469.188 323.66 469.021 323.258 468.725 322.962C468.429 322.666 468.028 322.5 467.609 322.5Z" fill="white"/>
<path d="M436.047 300.406C436.465 300.406 436.867 300.24 437.163 299.944C437.459 299.648 437.625 299.247 437.625 298.828V297.25H439.203C439.622 297.25 440.023 297.084 440.319 296.788C440.615 296.492 440.781 296.09 440.781 295.672C440.781 295.253 440.615 294.852 440.319 294.556C440.023 294.26 439.622 294.094 439.203 294.094H436.047C435.628 294.094 435.227 294.26 434.931 294.556C434.635 294.852 434.469 295.253 434.469 295.672V298.828C434.469 299.247 434.635 299.648 434.931 299.944C435.227 300.24 435.628 300.406 436.047 300.406Z" fill="white"/>
<path d="M436.047 309.875C436.465 309.875 436.867 309.709 437.163 309.413C437.459 309.117 437.625 308.715 437.625 308.297V305.141C437.625 304.722 437.459 304.321 437.163 304.025C436.867 303.729 436.465 303.562 436.047 303.562C435.628 303.562 435.227 303.729 434.931 304.025C434.635 304.321 434.469 304.722 434.469 305.141V308.297C434.469 308.715 434.635 309.117 434.931 309.413C435.227 309.709 435.628 309.875 436.047 309.875Z" fill="white"/>
<path d="M436.047 319.344C436.465 319.344 436.867 319.177 437.163 318.882C437.459 318.586 437.625 318.184 437.625 317.766V314.609C437.625 314.191 437.459 313.789 437.163 313.493C436.867 313.198 436.465 313.031 436.047 313.031C435.628 313.031 435.227 313.198 434.931 313.493C434.635 313.789 434.469 314.191 434.469 314.609V317.766C434.469 318.184 434.635 318.586 434.931 318.882C435.227 319.177 435.628 319.344 436.047 319.344Z" fill="white"/>
<path d="M483.391 309.875H473.922C473.503 309.875 473.102 310.041 472.806 310.337C472.51 310.633 472.344 311.035 472.344 311.453C472.344 311.872 472.51 312.273 472.806 312.569C473.102 312.865 473.503 313.031 473.922 313.031H483.391C483.809 313.031 484.211 312.865 484.507 312.569C484.802 312.273 484.969 311.872 484.969 311.453C484.969 311.035 484.802 310.633 484.507 310.337C484.211 310.041 483.809 309.875 483.391 309.875Z" fill="white"/>
<path d="M514.953 309.875H489.703C489.285 309.875 488.883 310.041 488.587 310.337C488.291 310.633 488.125 311.035 488.125 311.453C488.125 311.872 488.291 312.273 488.587 312.569C488.883 312.865 489.285 313.031 489.703 313.031H514.953C515.372 313.031 515.773 312.865 516.069 312.569C516.365 312.273 516.531 311.872 516.531 311.453C516.531 311.035 516.365 310.633 516.069 310.337C515.773 310.041 515.372 309.875 514.953 309.875Z" fill="white"/>
<path d="M514.953 316.188H492.859C492.441 316.188 492.039 316.354 491.743 316.65C491.448 316.946 491.281 317.347 491.281 317.766C491.281 318.184 491.448 318.586 491.743 318.882C492.039 319.177 492.441 319.344 492.859 319.344H514.953C515.372 319.344 515.773 319.177 516.069 318.882C516.365 318.586 516.531 318.184 516.531 317.766C516.531 317.347 516.365 316.946 516.069 316.65C515.773 316.354 515.372 316.188 514.953 316.188Z" fill="white"/>
<path d="M514.953 294.094H473.922C473.503 294.094 473.102 294.26 472.806 294.556C472.51 294.852 472.344 295.253 472.344 295.672V305.141C472.344 305.559 472.51 305.961 472.806 306.257C473.102 306.552 473.503 306.719 473.922 306.719H514.953C515.372 306.719 515.773 306.552 516.069 306.257C516.365 305.961 516.531 305.559 516.531 305.141V295.672C516.531 295.253 516.365 294.852 516.069 294.556C515.773 294.26 515.372 294.094 514.953 294.094ZM513.375 303.562H475.5V297.25H513.375V303.562Z" fill="white"/>
<path d="M462.875 301.984C462.875 301.566 462.709 301.164 462.413 300.868C462.117 300.573 461.715 300.406 461.297 300.406H442.359C441.941 300.406 441.539 300.573 441.243 300.868C440.948 301.164 440.781 301.566 440.781 301.984V320.922C440.781 321.34 440.948 321.742 441.243 322.038C441.539 322.334 441.941 322.5 442.359 322.5H461.297C461.715 322.5 462.117 322.334 462.413 322.038C462.709 321.742 462.875 321.34 462.875 320.922V301.984ZM459.719 319.344H443.938V303.562H459.719V319.344Z" fill="white"/>
<path d="M498.301 515.746C497.212 515.746 496.328 516.63 496.328 517.719C496.328 518.808 497.212 519.691 498.301 519.691C499.39 519.691 500.273 518.808 500.273 517.719C500.273 516.63 499.39 515.746 498.301 515.746Z" fill="white"/>
<path d="M514.082 507.855H492.418L486.164 495.346C485.154 493.328 483.126 492.074 480.87 492.074H458.13C455.873 492.074 453.845 493.328 452.836 495.346L446.582 507.855H442.672V505.883C442.672 502.62 440.017 499.965 436.754 499.965H432.809C429.545 499.965 426.891 502.62 426.891 505.883V507.855H424.918C421.655 507.855 419 510.51 419 513.773C419 519.134 419 566.923 419 569.008C419 572.271 421.655 574.926 424.918 574.926H514.082C517.345 574.926 520 572.271 520 569.008C520 563.647 520 515.859 520 513.773C520 510.51 517.345 507.855 514.082 507.855ZM456.365 497.111C456.702 496.438 457.378 496.02 458.13 496.02H480.87C481.622 496.02 482.299 496.438 482.635 497.111L488.007 507.855H450.993L456.365 497.111ZM430.836 505.883C430.836 504.795 431.721 503.91 432.809 503.91H436.754C437.842 503.91 438.727 504.795 438.727 505.883V507.855H430.836V505.883ZM422.945 527.562H447.89C445.268 531.658 443.855 536.457 443.855 541.391C443.855 546.324 445.268 551.105 447.89 555.199H422.945V527.562ZM469.5 519.691C481.362 519.691 491.199 529.302 491.199 541.391C491.199 553.466 481.376 563.09 469.5 563.09C457.613 563.09 447.801 553.455 447.801 541.391C447.801 529.317 457.623 519.691 469.5 519.691ZM516.055 569.008C516.055 570.096 515.17 570.98 514.082 570.98H424.918C423.83 570.98 422.945 570.096 422.945 569.008V559.145H451.002C455.822 564.169 462.512 567.035 469.5 567.035C476.489 567.035 483.18 564.168 487.999 559.145H516.055V569.008ZM516.055 555.199H491.11C493.732 551.104 495.145 546.324 495.145 541.391C495.145 536.457 493.732 531.677 491.11 527.582H516.055V555.199ZM516.055 523.637H487.998C483.178 518.612 476.488 515.746 469.5 515.746C462.511 515.746 455.82 518.613 451.001 523.637H422.945V513.773C422.945 512.686 423.83 511.801 424.918 511.801C426.709 511.801 511.309 511.801 514.082 511.801C515.17 511.801 516.055 512.686 516.055 513.773V523.637Z" fill="white"/>
<path d="M475.418 499.965H463.582C462.493 499.965 461.609 500.848 461.609 501.938C461.609 503.027 462.493 503.91 463.582 503.91H475.418C476.507 503.91 477.391 503.027 477.391 501.938C477.391 500.848 476.507 499.965 475.418 499.965Z" fill="white"/>
<path d="M469.5 523.637C459.71 523.637 451.746 531.601 451.746 541.391C451.746 551.18 459.71 559.145 469.5 559.145C479.29 559.145 487.254 551.18 487.254 541.391C487.254 531.601 479.29 523.637 469.5 523.637ZM469.5 555.199C461.886 555.199 455.691 549.005 455.691 541.391C455.691 533.777 461.886 527.582 469.5 527.582C477.114 527.582 483.309 533.777 483.309 541.391C483.309 549.005 477.114 555.199 469.5 555.199Z" fill="white"/>
<path d="M469.5 531.527C464.061 531.527 459.637 535.952 459.637 541.391C459.637 542.48 460.52 543.363 461.609 543.363C462.699 543.363 463.582 542.48 463.582 541.391C463.582 538.127 466.237 535.473 469.5 535.473C470.589 535.473 471.473 534.589 471.473 533.5C471.473 532.411 470.589 531.527 469.5 531.527Z" fill="white"/>
<path d="M510.137 515.746H506.191C505.102 515.746 504.219 516.629 504.219 517.719C504.219 518.808 505.102 519.691 506.191 519.691H510.137C511.226 519.691 512.109 518.808 512.109 517.719C512.109 516.629 511.226 515.746 510.137 515.746Z" fill="white"/>
<defs>
<clipPath id="clip0">
<rect width="101" height="101" fill="white"/>
</clipPath>
<clipPath id="clip1">
<rect width="101" height="101" fill="white" transform="translate(209)"/>
</clipPath>
<clipPath id="clip2">
<rect width="101" height="101" fill="white" transform="translate(206 257)"/>
</clipPath>
<clipPath id="clip3">
<rect width="101" height="101" fill="white" transform="translate(0 247)"/>
</clipPath>
</defs>
</svg>
