<?xml version="1.0" encoding="UTF-8"?>
<svg xmlns="http://www.w3.org/2000/svg" xmlns:xlink="http://www.w3.org/1999/xlink" width="512" height="512" viewBox="0 0 60 60" version="1.1"><!-- Generator: Sketch 51.3 (57544) - http://www.bohemiancoding.com/sketch --><title>039 - Inspiration</title><desc>Created with Sketch.</desc><defs/><g id="Page-1" stroke="none" stroke-width="1" fill="none" fill-rule="evenodd"><g id="039---Inspiration" transform="translate(-1.000000, -1.000000)" fill="#000000" fill-rule="nonzero"><path d="M20.957,7.607 C20.7959777,7.07876537 20.2372564,6.7810493 19.709,6.942 C17.6483921,7.47750189 15.7606426,8.53520641 14.228,10.013 C12.8336782,11.5109919 11.756452,13.2753027 11.061,15.2 C10.7612032,16.086623 10.5141052,16.9902005 10.321,17.906 L10.221,18.339 C10.1356254,18.6881834 10.2442362,19.0563226 10.5054777,19.3032451 C10.7667192,19.5501676 11.1403903,19.6378757 11.4842121,19.5329737 C11.8280339,19.4280717 12.0890973,19.1467025 12.168,18.796 L12.268,18.361 C12.4434278,17.5255136 12.6667971,16.7008165 12.937,15.891 C13.5401016,14.2219058 14.4733406,12.6914483 15.681,11.391 C16.9771231,10.1691454 18.5634442,9.29802828 20.29,8.86 C20.5451874,8.78315248 20.7591427,8.60762064 20.8843727,8.37236841 C21.0096028,8.13711618 21.0357463,7.86160793 20.957,7.607 Z" id="Shape"/><circle id="Oval" cx="10" cy="22" r="1"/><path d="M24.822,36.593 C24.422,37.108 24.199,37.401 24.199,37.401 C23.8676292,37.8428278 23.9571722,38.4696292 24.399,38.801 C24.8408278,39.1323708 25.4676292,39.0428278 25.799,38.601 C25.799,38.595 26.011,38.316 26.399,37.829 C26.7400358,37.3943519 26.6641481,36.7655359 26.2295,36.4245 C25.7948519,36.0834642 25.1660358,36.1593519 24.825,36.594 L24.822,36.593 Z" id="Shape"/><path d="M28.9,31.7 C28.48,32.177 28.082,32.637 27.708,33.075 C27.3490149,33.4947364 27.3982636,34.1260149 27.818,34.485 C28.2377364,34.8439851 28.8690149,34.7947364 29.228,34.375 C29.596,33.945 29.986,33.493 30.4,33.025 C30.7658886,32.6107864 30.7267135,31.9783887 30.3125,31.6125 C29.8982864,31.2466114 29.2658886,31.2857864 28.9,31.7 Z" id="Shape"/><path d="M33.255,27.05 C32.8196667,27.4846667 32.3943333,27.918 31.979,28.35 C31.5965428,28.7487496 31.6097505,29.3820428 32.0085,29.7645 C32.4072496,30.1469571 33.0405428,30.1337496 33.423,29.735 C33.8283333,29.3123333 34.2436667,28.8876667 34.669,28.461 C34.9349578,28.2112473 35.0437909,27.836473 34.9529745,27.4831143 C34.8621582,27.1297557 34.5861073,26.8539 34.2326845,26.7633337 C33.8792617,26.6727674 33.5045645,26.7818656 33.255,27.048 L33.255,27.05 Z" id="Shape"/><path d="M33,21 C32.9972229,19.7968468 32.4538268,18.6586521 31.52,17.9 C32.4816868,15.9798626 31.755554,13.6429703 29.8750132,12.6059864 C27.9944725,11.5690025 25.6306536,12.2020072 24.52,14.04 C23.3806814,13.8974786 22.234781,14.2488164 21.3711474,15.0054511 C20.5075138,15.7620858 20.0085389,16.8518335 20,18 C20,18.112 20,18.225 20.015,18.34 C18.9673882,19.5165437 18.7079141,21.1984198 19.3522297,22.6359883 C19.9965453,24.0735567 21.4246446,24.9990655 23,25 L29,25 C31.209139,25 33,23.209139 33,21 Z M30.413,22.413 C30.0393029,22.7895323 29.5304953,23.0009053 29,23 L23,23 C22.1910567,22.9990198 21.4623616,22.510829 21.1537179,21.7630795 C20.8450743,21.01533 21.0172671,20.1552856 21.59,19.584 C21.613,19.56 21.64,19.532 21.658,19.516 C21.9849762,19.2846663 22.1423738,18.8805479 22.058,18.489 C22.0211467,18.3285585 22.0017009,18.1646109 22,18 C22,16.8954305 22.8954305,16 24,16 C24.2507451,16.0006629 24.4989865,16.0499037 24.731,16.145 C24.9971615,16.2542178 25.2974682,16.2435104 25.5551755,16.1156141 C25.8128828,15.9877178 26.0030211,15.7550245 26.077,15.477 C26.3494586,14.5225967 27.2806362,13.9123969 28.2644636,14.0435572 C29.248291,14.1747174 29.9870885,15.0075522 30,16 C30.0039252,16.5521713 29.7730856,17.0800125 29.365,17.452 C29.1072537,17.6878785 28.991306,18.0411758 29.0591583,18.3839117 C29.1270106,18.7266476 29.368823,19.0091182 29.697,19.129 C30.3351302,19.3651376 30.8089061,19.9102241 30.9538508,20.5750264 C31.0987955,21.2398288 30.8949193,21.9326616 30.413,22.413 Z" id="Shape"/><path d="M60,33 C59.9947193,30.8336062 58.2657233,29.0651536 56.1,29.011 L60.983,2.179 C60.9845,2.14968584 60.9845,2.12031416 60.983,2.091 C60.9920005,2.01292521 60.9920005,1.93407479 60.983,1.856 C60.983,1.844 60.983,1.833 60.983,1.821 C60.983,1.809 60.983,1.81 60.977,1.804 C60.9661748,1.76868795 60.9534904,1.73397284 60.939,1.7 C60.9192719,1.63587285 60.8931403,1.57389389 60.861,1.515 C60.848,1.493 60.842,1.467 60.828,1.446 C60.814,1.425 60.783,1.4 60.763,1.373 C60.743,1.346 60.731,1.317 60.707,1.293 C60.683,1.269 60.652,1.258 60.627,1.237 C60.602,1.216 60.584,1.191 60.558,1.173 C60.532,1.155 60.511,1.152 60.488,1.139 C60.4283664,1.10596246 60.3653328,1.07947495 60.3,1.06 C60.2676087,1.04552885 60.2341825,1.03349543 60.2,1.024 C60.193,1.024 60.188,1.017 60.181,1.016 C60.174,1.015 60.158,1.016 60.146,1.016 C60.0669817,1.00600195 59.9870183,1.00600195 59.908,1.016 C59.879,1.016 59.852,1.009 59.823,1.016 L43.6,3.966 C39.7706898,1.81044149 35.4058295,0.792251611 31.018,1.031 C27.7640828,1.25668862 24.5310865,1.72059835 21.345,2.419 C16.836,3.319 13.559,4.9 11.322,7.264 C9.55741114,9.15217091 8.19304573,11.3778111 7.311,13.807 C6.95086895,14.8522819 6.65498362,15.9186045 6.425,17 L6.325,17.422 C6.1115707,18.2063052 5.82532664,18.9689531 5.47,19.7 C5.27,20.156 5.062,20.612 4.883,21.084 C4.65284498,21.6094053 4.56192334,22.1852424 4.619,22.756 C4.82021123,23.6521932 5.3374331,24.4459531 6.076,24.992 C6.565,25.44 6.886,25.756 6.89,26.031 C6.85421996,26.1830023 6.79697882,26.3291355 6.72,26.465 C5.52247783,28.986227 4.05560327,31.370443 2.345,33.576 C1.62,34.458 0.86,35.487 1.02,36.517 C1.23211923,37.311598 1.75555427,37.9871609 2.472,38.391 C2.80078202,38.6194083 3.14797678,38.8200989 3.51,38.991 C3.942,39.212 4.667,39.582 4.718,39.841 C4.78085126,40.1828692 4.73974795,40.5357307 4.6,40.854 C4.451,41.174 4.295,41.449 4.16,41.686 C3.794,42.333 3.181,43.417 4.105,44.172 C4.321,44.372 4.694,44.661 5.034,44.922 C4.78370505,45.359639 4.67048978,45.8623148 4.709,46.365 C4.76206133,46.7609003 4.97674391,47.1171358 5.302,47.349 C5.524,47.505 5.761,47.641 5.994,47.774 C6.586,48.11 6.817,48.267 6.894,48.581 C6.94956021,48.9834802 6.91541128,49.3932674 6.794,49.781 C6.735,50.048 6.678,50.316 6.644,50.581 C6.54469822,51.4923539 6.65729272,52.4143284 6.973,53.275 C7.42281456,54.8638526 8.85996076,55.9707558 10.511,56 C10.7865929,55.9991845 11.0613714,55.9700312 11.331,55.913 C14.1877778,55.2358183 17.0028445,54.3934018 19.762,53.39 C22.015,54.712 23.438,58.732 23.809,60.241 C23.9197719,60.6870872 24.3203652,61.0002183 24.78,61 L49.88,60.93 C50.198095,60.9293833 50.4969218,60.7774667 50.6848608,60.5208273 C50.8727998,60.2641879 50.9274293,59.9334437 50.832,59.63 C50.584758,58.9524505 50.2437748,58.3128965 49.819,57.73 C49.5792082,57.3843183 49.3630492,57.0228282 49.172,56.648 C48.7190564,55.7315437 48.3414759,54.7797332 48.043,53.802 C47.4717419,51.8695435 47.0758071,49.8895347 46.86,47.886 C46.508527,44.8934711 46.9624966,41.8613687 48.175,39.103 C48.203,39.038 48.24,38.971 48.275,38.903 C49.0092128,39.6043277 49.9846577,39.9970114 51,40 L57,40 C58.5749515,39.9987155 60.002558,39.0733575 60.646789,37.6361935 C61.2910201,36.1990295 61.0319499,34.5175925 59.985,33.341 C60,33.226 60,33.113 60,33 Z M47.109,23.138 L58.152,6.574 L53.893,30 C53.8874643,30.0220309 53.8834548,30.0444173 53.881,30.067 L53.734,30.867 L47.109,23.138 Z M55.425,3.848 L38.863,14.89 L31.134,8.265 L55.425,3.848 Z M45.15,16.848 C44.7595001,16.4576181 44.1264999,16.4576181 43.736,16.848 L38.873,21.713 L39.702,16.733 L56.4,5.605 L45.266,22.3 L40.286,23.13 L45.15,18.265 C45.3380834,18.0773915 45.4437876,17.8226545 45.4437876,17.557 C45.4437876,17.2913455 45.3380834,17.0366085 45.15,16.849 L45.15,16.848 Z M44.877,48.13 C45.1076596,50.2534653 45.5286863,52.3519052 46.135,54.4 C46.4640482,55.4749292 46.879054,56.5216399 47.376,57.53 C47.6041562,57.9828684 47.8630969,58.4195592 48.151,58.837 L48.218,58.937 L25.536,59 C24.8721602,56.6278229 23.6672676,54.4419012 22.016,52.614 L22.916,52.299 C23.586,52.065 24.091,51.889 24.35,51.806 C28.634,50.451 30.776,48.5 30.718,46.006 C30.7049669,45.4631101 30.2610463,45.0298436 29.718,45.03 L29.7,45.03 C29.1480455,45.043101 28.711146,45.5010397 28.724,46.053 C28.748,47.082 27.905,48.583 23.748,49.898 C23.477,49.985 22.955,50.167 22.262,50.409 C21.519,50.669 20.574,50.999 19.532,51.353 L19.525,51.353 C16.7107997,52.3845725 13.8393482,53.2526858 10.925,53.953 C9.99269116,54.1316332 9.08521509,53.5438462 8.867,52.62 C8.65388223,52.0509761 8.57350619,51.4408023 8.632,50.836 C8.658,50.626 8.706,50.418 8.752,50.209 C8.95576498,49.5176489 8.98564963,48.7866772 8.839,48.081 C8.54814599,47.1623751 7.87220583,46.4156291 6.987,46.035 L6.78,45.917 C6.88797779,45.6989963 7.01691908,45.4920204 7.165,45.299 C7.33275906,45.0864363 7.40714209,44.8149259 7.3711438,44.5465408 C7.33514552,44.2781557 7.19184383,44.0358431 6.974,43.875 C6.734,43.699 6.168,43.275 5.754,42.941 C5.802,42.854 5.854,42.758 5.904,42.671 C6.061,42.396 6.24,42.076 6.415,41.706 C6.73144627,41.0050454 6.82465982,40.2237273 6.682,39.468 C6.442,38.248 5.273,37.65 4.421,37.214 C4.13330073,37.0772824 3.85736569,36.9170729 3.596,36.735 C3.38336862,36.5912941 3.18391862,36.42899 3,36.25 C3,36.098 3.163,35.73 3.925,34.803 C5.71607044,32.4972449 7.2517206,30.0039928 8.505,27.367 C8.73934083,26.9538574 8.87135428,26.4906102 8.89,26.016 C8.78670832,25.0108401 8.25404392,24.0993679 7.429,23.516 C7.029,23.145 6.644,22.795 6.599,22.469 C6.60563423,22.2329751 6.65864086,22.0005614 6.755,21.785 C6.918,21.356 7.106,20.936 7.295,20.515 C7.70505054,19.6694994 8.03256792,18.786408 8.273,17.878 L8.373,17.452 C8.58408599,16.4522697 8.85626318,15.4664205 9.188,14.5 C9.97629737,12.324256 11.1967986,10.3305666 12.776,8.639 C14.689,6.615 17.7,5.183 21.74,4.38 C24.8292288,3.70168567 27.9639186,3.25014863 31.119,3.029 C34.245064,2.84015782 37.3729591,3.36791529 40.264,4.572 L28.709,6.672 C28.3294929,6.74101888 28.0235184,7.0221565 27.9226945,7.39447865 C27.8218706,7.76680081 27.9441761,8.16391557 28.237,8.415 L37.708,16.533 L36.45,24.083 C36.1733287,24.4545079 36.1928931,24.9685946 36.497,25.318 C36.6867049,25.5327804 36.9594366,25.6558556 37.246,25.656 C37.3136756,25.6511012 37.3806828,25.639375 37.446,25.621 C37.478,25.621 37.51,25.621 37.541,25.613 L45.47,24.291 L48.978,28.384 C47.8880276,29.6388626 47.6896521,31.4377858 48.48,32.9 C47.5461732,33.6586521 47.0027771,34.7968468 47,36 C47.0032674,36.2817758 47.036793,36.5623854 47.1,36.837 C46.8196175,37.3130711 46.5668662,37.8048842 46.343,38.31 C44.9897805,41.3947283 44.4837247,44.7845424 44.877,48.13 Z M57,38 L51,38 C50.4695047,38.0009053 49.9606971,37.7895323 49.587,37.413 C49.3683653,37.1949499 49.204254,36.9283976 49.108,36.635 C49.0358347,36.4310973 48.9993015,36.2162953 49,36 C49.0010421,35.1663478 49.5190757,34.4207778 50.3,34.129 C50.628177,34.0091182 50.8699894,33.7266476 50.9378417,33.3839117 C51.005694,33.0411758 50.8897463,32.6878785 50.632,32.452 C50.225024,32.0794762 49.9953066,31.5517077 50,31 C50.001953,30.625849 50.1094,30.259836 50.31,29.944 L53.584,33.764 C53.7739629,33.9855002 54.0511983,34.1129773 54.343,34.113 C54.4311857,34.1132394 54.518993,34.1014645 54.604,34.078 C54.9760494,33.9770658 55.2569518,33.6712635 55.326,33.292 L55.738,31.026 C55.8246426,31.0114011 55.9121781,31.0027144 56,31 C57.1045695,31 58,31.8954305 58,33 C57.9982991,33.1646109 57.9788533,33.3285585 57.942,33.489 C57.8799629,33.8738057 58.0283171,34.262425 58.331,34.508 L58.413,34.587 C58.9839737,35.1589529 59.1546116,36.0183318 58.8454705,36.7650398 C58.5363294,37.5117478 57.8081708,37.9990202 57,38 Z" id="Shape"/></g></g></svg>
