<svg width="101" height="101" viewBox="0 0 101 101" fill="none" xmlns="http://www.w3.org/2000/svg">
<path d="M68.9753 3.61844C68.8288 3.4719 68.6548 3.35566 68.4633 3.27636C68.2718 3.19706 68.0666 3.15624 67.8594 3.15625H23.6719C20.7431 3.15954 17.9352 4.32446 15.8642 6.39544C13.7932 8.46642 12.6283 11.2743 12.625 14.2031V86.7969C12.6283 89.7257 13.7932 92.5336 15.8642 94.6046C17.9352 96.6755 20.7431 97.8405 23.6719 97.8438H77.3281C80.2569 97.8405 83.0648 96.6755 85.1358 94.6046C87.2068 92.5336 88.3717 89.7257 88.375 86.7969V23.6719C88.375 23.4646 88.3342 23.2594 88.2549 23.0679C88.1756 22.8765 88.0593 22.7025 87.9128 22.5559L68.9753 3.61844ZM69.4375 8.54417L82.9871 22.0938H77.3281C75.2361 22.0914 73.2305 21.2593 71.7512 19.78C70.2719 18.3008 69.4398 16.2951 69.4375 14.2031V8.54417ZM23.6719 6.3125H66.2812V14.2031C66.2845 17.1319 67.4495 19.9398 69.5204 22.0108C71.5914 24.0818 74.3993 25.2467 77.3281 25.25H85.2188V69.4375H15.7812V14.2031C15.7836 12.1111 16.6157 10.1055 18.095 8.62621C19.5742 7.14693 21.5799 6.31485 23.6719 6.3125ZM77.3281 94.6875H23.6719C21.5799 94.6852 19.5742 93.8531 18.095 92.3738C16.6157 90.8945 15.7836 88.8889 15.7812 86.7969V72.5938H85.2188V86.7969C85.2164 88.8889 84.3843 90.8945 82.905 92.3738C81.4258 93.8531 79.4201 94.6852 77.3281 94.6875Z" fill="white"/>
<path d="M47.3438 75.75C46.9252 75.75 46.5238 75.9163 46.2278 76.2122C45.9319 76.5082 45.7656 76.9096 45.7656 77.3281V86.7969C45.7656 87.2154 45.5994 87.6168 45.3034 87.9128C45.0074 88.2087 44.606 88.375 44.1875 88.375C43.769 88.375 43.3676 88.2087 43.0716 87.9128C42.7756 87.6168 42.6094 87.2154 42.6094 86.7969C42.6094 86.3783 42.4431 85.9769 42.1472 85.681C41.8512 85.385 41.4498 85.2188 41.0312 85.2188C40.6127 85.2188 40.2113 85.385 39.9153 85.681C39.6194 85.9769 39.4531 86.3783 39.4531 86.7969C39.4531 88.0525 39.9519 89.2567 40.8398 90.1446C41.7277 91.0324 42.9319 91.5312 44.1875 91.5312C45.4431 91.5312 46.6473 91.0324 47.5352 90.1446C48.4231 89.2567 48.9219 88.0525 48.9219 86.7969V77.3281C48.9219 76.9096 48.7556 76.5082 48.4597 76.2122C48.1637 75.9163 47.7623 75.75 47.3438 75.75Z" fill="white"/>
<path d="M56.8125 78.9062H59.9688C60.3873 78.9062 60.7887 78.74 61.0847 78.444C61.3806 78.1481 61.5469 77.7467 61.5469 77.3281C61.5469 76.9096 61.3806 76.5082 61.0847 76.2122C60.7887 75.9163 60.3873 75.75 59.9688 75.75H56.8125C55.5569 75.75 54.3527 76.2488 53.4648 77.1367C52.5769 78.0245 52.0781 79.2287 52.0781 80.4844C52.0781 81.74 52.5769 82.9442 53.4648 83.8321C54.3527 84.7199 55.5569 85.2188 56.8125 85.2188C57.231 85.2188 57.6324 85.385 57.9284 85.681C58.2244 85.9769 58.3906 86.3783 58.3906 86.7969C58.3906 87.2154 58.2244 87.6168 57.9284 87.9128C57.6324 88.2087 57.231 88.375 56.8125 88.375H53.6562C53.2377 88.375 52.8363 88.5413 52.5403 88.8372C52.2444 89.1332 52.0781 89.5346 52.0781 89.9531C52.0781 90.3717 52.2444 90.7731 52.5403 91.069C52.8363 91.365 53.2377 91.5312 53.6562 91.5312H56.8125C58.0681 91.5312 59.2723 91.0324 60.1602 90.1446C61.0481 89.2567 61.5469 88.0525 61.5469 86.7969C61.5469 85.5412 61.0481 84.337 60.1602 83.4492C59.2723 82.5613 58.0681 82.0625 56.8125 82.0625C56.394 82.0625 55.9926 81.8962 55.6966 81.6003C55.4006 81.3043 55.2344 80.9029 55.2344 80.4844C55.2344 80.0658 55.4006 79.6644 55.6966 79.3685C55.9926 79.0725 56.394 78.9062 56.8125 78.9062Z" fill="white"/>
<path d="M56.8125 44.1875C57.6841 44.1875 58.3906 43.4809 58.3906 42.6094C58.3906 41.7378 57.6841 41.0312 56.8125 41.0312C55.9409 41.0312 55.2344 41.7378 55.2344 42.6094C55.2344 43.4809 55.9409 44.1875 56.8125 44.1875Z" fill="white"/>
<path d="M44.1875 44.1875C45.0591 44.1875 45.7656 43.4809 45.7656 42.6094C45.7656 41.7378 45.0591 41.0312 44.1875 41.0312C43.3159 41.0312 42.6094 41.7378 42.6094 42.6094C42.6094 43.4809 43.3159 44.1875 44.1875 44.1875Z" fill="white"/>
<path d="M50.5 44.1875C51.3716 44.1875 52.0781 43.4809 52.0781 42.6094C52.0781 41.7378 51.3716 41.0312 50.5 41.0312C49.6284 41.0312 48.9219 41.7378 48.9219 42.6094C48.9219 43.4809 49.6284 44.1875 50.5 44.1875Z" fill="white"/>
<path d="M29.9844 44.1875C30.4028 44.188 30.8039 44.3544 31.0998 44.6502C31.3956 44.9461 31.562 45.3472 31.5625 45.7656V52.0781C31.564 53.3333 32.0632 54.5367 32.9508 55.4242C33.8383 56.3118 35.0417 56.811 36.2969 56.8125C36.7154 56.8125 37.1168 56.6462 37.4128 56.3503C37.7087 56.0543 37.875 55.6529 37.875 55.2344C37.875 54.8158 37.7087 54.4144 37.4128 54.1185C37.1168 53.8225 36.7154 53.6562 36.2969 53.6562C35.8785 53.6558 35.4773 53.4894 35.1815 53.1935C34.8856 52.8977 34.7192 52.4965 34.7188 52.0781V45.7656C34.7198 44.6004 34.2893 43.476 33.5103 42.6094C34.2893 41.7428 34.7198 40.6184 34.7188 39.4531V33.1406C34.7192 32.7222 34.8856 32.3211 35.1815 32.0252C35.4773 31.7294 35.8785 31.563 36.2969 31.5625C36.7154 31.5625 37.1168 31.3962 37.4128 31.1003C37.7087 30.8043 37.875 30.4029 37.875 29.9844C37.875 29.5658 37.7087 29.1644 37.4128 28.8685C37.1168 28.5725 36.7154 28.4062 36.2969 28.4062C35.0417 28.4077 33.8383 28.907 32.9508 29.7945C32.0632 30.6821 31.564 31.8854 31.5625 33.1406V39.4531C31.562 39.8715 31.3956 40.2727 31.0998 40.5685C30.8039 40.8644 30.4028 41.0308 29.9844 41.0312C29.5658 41.0312 29.1644 41.1975 28.8685 41.4935C28.5725 41.7894 28.4062 42.1908 28.4062 42.6094C28.4062 43.0279 28.5725 43.4293 28.8685 43.7253C29.1644 44.0212 29.5658 44.1875 29.9844 44.1875Z" fill="white"/>
<path d="M66.2812 52.0781C66.2808 52.4965 66.1144 52.8977 65.8185 53.1935C65.5227 53.4894 65.1215 53.6558 64.7031 53.6562C64.2846 53.6562 63.8832 53.8225 63.5872 54.1185C63.2913 54.4144 63.125 54.8158 63.125 55.2344C63.125 55.6529 63.2913 56.0543 63.5872 56.3503C63.8832 56.6462 64.2846 56.8125 64.7031 56.8125C65.9583 56.811 67.1617 56.3118 68.0492 55.4242C68.9368 54.5367 69.436 53.3333 69.4375 52.0781V45.7656C69.438 45.3472 69.6044 44.9461 69.9002 44.6502C70.1961 44.3544 70.5972 44.188 71.0156 44.1875C71.4342 44.1875 71.8356 44.0212 72.1315 43.7253C72.4275 43.4293 72.5938 43.0279 72.5938 42.6094C72.5938 42.1908 72.4275 41.7894 72.1315 41.4935C71.8356 41.1975 71.4342 41.0312 71.0156 41.0312C70.5972 41.0308 70.1961 40.8644 69.9002 40.5685C69.6044 40.2727 69.438 39.8715 69.4375 39.4531V33.1406C69.436 31.8854 68.9368 30.6821 68.0492 29.7945C67.1617 28.907 65.9583 28.4077 64.7031 28.4062C64.2846 28.4063 63.8832 28.5725 63.5872 28.8685C63.2913 29.1644 63.125 29.5658 63.125 29.9844C63.125 30.4029 63.2913 30.8043 63.5872 31.1003C63.8832 31.3962 64.2846 31.5625 64.7031 31.5625C65.1215 31.563 65.5227 31.7294 65.8185 32.0252C66.1144 32.3211 66.2808 32.7222 66.2812 33.1406V39.4531C66.2802 40.6184 66.7107 41.7428 67.4897 42.6094C66.7107 43.476 66.2802 44.6004 66.2812 45.7656V52.0781Z" fill="white"/>
</svg>
