<svg width="101" height="101" viewBox="0 0 101 101" fill="none" xmlns="http://www.w3.org/2000/svg">
<g clip-path="url(#clip0)">
<path d="M50.4998 0C35.5958 0 19.7607 4.61519 19.7607 13.1739V52.6956C19.7607 61.3465 35.2226 65.8695 50.4998 65.8695C65.777 65.8695 81.2388 61.3465 81.2388 52.6956V13.1739C81.239 4.61519 65.404 0 50.4998 0ZM76.8476 52.6956C76.8476 56.8497 66.0275 61.4783 50.4998 61.4783C34.9721 61.4783 24.152 56.8499 24.152 52.6956V46.5391C29.8915 50.5703 40.3997 52.6956 50.4998 52.6956C60.5998 52.6956 71.1081 50.5703 76.8476 46.5391V52.6956ZM76.8476 39.5217C76.8476 43.1884 66.8223 48.3044 50.4998 48.3044C34.1773 48.3044 24.152 43.1886 24.152 39.5217V33.3652C29.8915 37.3964 40.3997 39.5217 50.4998 39.5217C60.5998 39.5217 71.1081 37.3964 76.8476 33.3652V39.5217ZM76.8476 26.3478C76.8476 30.0145 66.8223 35.1305 50.4998 35.1305C34.1773 35.1305 24.152 30.0147 24.152 26.3478V20.1913C29.8915 24.2225 40.3997 26.3478 50.4998 26.3478C60.5998 26.3478 71.1081 24.2225 76.8476 20.1913V26.3478ZM50.4998 21.9566C34.1773 21.9566 24.152 16.8408 24.152 13.1739C24.152 9.50724 34.1773 4.39123 50.4998 4.39123C66.8223 4.39123 76.8476 9.50703 76.8476 13.1739C76.8476 16.8406 66.8223 21.9566 50.4998 21.9566Z" fill="white"/>
<path d="M51.185 79.1268L50.5351 79.0171C46.684 78.3891 46.1087 77.3878 46.1087 76.8477C46.1087 75.9739 47.8608 74.652 50.5045 74.652C53.0997 74.652 54.8123 75.886 54.9002 76.773C55.0145 77.9807 56.0815 78.9115 57.2935 78.7491C58.5012 78.6348 59.3839 77.5634 59.2696 76.3557C58.936 72.8778 55.1682 70.2562 50.5001 70.2562C45.5731 70.2562 41.7131 73.1502 41.7131 76.8432C41.7131 80.2816 44.4401 82.4684 49.8239 83.3468L50.1796 81.1819L50.4738 83.4567C54.123 84.0584 54.887 84.9717 54.887 85.6304C54.887 86.5042 53.1349 87.8261 50.4913 87.8261C47.896 87.8261 46.1834 86.5878 46.0955 85.7008C45.9813 84.4931 44.9405 83.593 43.7022 83.7247C42.4945 83.8389 41.6119 84.9103 41.7261 86.118C42.06 89.5957 45.8277 92.2173 50.4956 92.2173C55.4226 92.2173 59.2826 89.3234 59.2826 85.6304C59.2826 82.1963 56.5599 80.0094 51.185 79.1268Z" fill="white"/>
<path d="M81.2392 76.8477C81.2392 73.216 78.2839 70.2607 74.6523 70.2607H70.261C66.6293 70.2607 63.6741 73.216 63.6741 76.8477V85.6304C63.6741 89.262 66.6293 92.2173 70.261 92.2173H74.6523C75.6666 92.2173 76.6152 91.967 77.4715 91.5586L77.489 91.5761C77.9194 92.002 78.4813 92.2173 79.0435 92.2173C79.6056 92.2173 80.1676 92.0022 80.5937 91.5761C81.45 90.7198 81.45 89.3277 80.5937 88.4714L80.5762 88.4539C80.9889 87.5976 81.2392 86.6448 81.2392 85.6304V76.8477ZM76.8478 84.7257L76.2022 84.0802C75.3459 83.2239 73.9538 83.2239 73.0975 84.0802C72.2412 84.9365 72.2412 86.3286 73.0975 87.1849L73.7387 87.8261H70.2608C69.0488 87.8261 68.0651 86.8424 68.0651 85.6304V76.8477C68.0651 75.6357 69.0488 74.652 70.2608 74.652H74.652C75.864 74.652 76.8478 75.6357 76.8478 76.8477V84.7257Z" fill="white"/>
<path d="M96.6085 87.8261H90.0216V72.4565C90.0216 71.2445 89.0378 70.2607 87.8258 70.2607C86.6138 70.2607 85.6301 71.2445 85.6301 72.4565V90.0216C85.6301 91.2336 86.6138 92.2173 87.8258 92.2173H96.6085C97.8205 92.2173 98.8042 91.2336 98.8042 90.0216C98.8042 88.8096 97.8205 87.8261 96.6085 87.8261Z" fill="white"/>
<path d="M36.1142 79.2718C35.0251 78.7316 33.7122 79.1707 33.1676 80.2555L30.7392 85.1167L28.3109 80.2598C27.7665 79.1752 26.4491 78.736 25.3643 79.2761C24.2797 79.8205 23.8361 81.1379 24.3806 82.2227L28.2844 90.026L24.3849 97.8206C23.8448 98.9052 24.2838 100.223 25.3686 100.767C25.6848 100.925 26.0184 101 26.3478 101C27.1514 101 27.9243 100.556 28.315 99.7837L37.0977 82.2186C37.638 81.1338 37.199 79.8164 36.1142 79.2718Z" fill="white"/>
<path d="M18.2591 70.375C17.3676 70.072 16.3752 70.3838 15.8088 71.139L10.9783 77.5768L6.14797 71.139C5.58149 70.3838 4.6023 70.072 3.69763 70.375C2.8018 70.6736 2.1958 71.5122 2.1958 72.4564V90.0216C2.1958 91.2336 3.17952 92.2173 4.39152 92.2173C5.60352 92.2173 6.58703 91.2336 6.58703 90.0216V79.0434L9.22181 82.5565C10.0518 83.6631 11.9093 83.6631 12.7349 82.5565L15.3697 79.0434V90.0216C15.3697 91.2336 16.3534 92.2173 17.5654 92.2173C18.7774 92.2173 19.7609 91.2336 19.7609 90.0216V72.4564C19.7609 71.5122 19.1549 70.6736 18.2591 70.375Z" fill="white"/>
</g>
<defs>
<clipPath id="clip0">
<rect width="101" height="101" fill="white"/>
</clipPath>
</defs>
</svg>
