<svg width="101" height="101" viewBox="0 0 101 101" fill="none" xmlns="http://www.w3.org/2000/svg">
<g clip-path="url(#clip0)">
<path d="M75.75 101C75.4723 101 75.1945 100.945 74.9336 100.836C73.932 100.411 50.5 90.2856 50.5 69.589V52.0024C50.5 51.0976 51.0765 50.298 51.9308 50.0076L75.0767 42.1927C75.5143 42.0455 75.9899 42.0455 76.4233 42.1927L99.5692 50.0076C100.423 50.2938 101 51.0976 101 52.0024V69.589C101 90.2856 77.568 100.411 76.5664 100.836C76.3055 100.945 76.0278 101 75.75 101ZM54.7083 53.5174V69.589C54.7083 85.5133 71.7731 94.6622 75.75 96.577C79.7227 94.658 96.7917 85.4712 96.7917 69.589V53.5174L75.75 46.4095L54.7083 53.5174Z" fill="white"/>
<path d="M73.6458 79.9582C73.6079 79.9582 73.5658 79.9582 73.5322 79.954C72.9304 79.9203 72.3791 79.6384 72.0045 79.167L63.5879 68.6462C62.864 67.7372 63.0071 66.4158 63.9161 65.6877C64.8293 64.9681 66.1507 65.1112 66.8746 66.016L73.8183 74.6978L86.8852 61.6351C87.7058 60.8145 89.0399 60.8145 89.8605 61.6351C90.6811 62.4557 90.6811 63.7898 89.8605 64.6104L75.1313 79.3396C74.7399 79.7352 74.2013 79.9582 73.6458 79.9582Z" fill="white"/>
<path d="M53.4459 101H18.9376C13.1343 101 8.41675 96.2825 8.41675 90.4792V10.5208C8.41675 4.71754 13.1343 0 18.9376 0H82.0626C87.8659 0 92.5834 4.71754 92.5834 10.5208V35.8129C92.5834 36.9744 91.6408 37.9171 90.4792 37.9171C89.3177 37.9171 88.3751 36.9744 88.3751 35.8129V10.5208C88.3751 7.04054 85.5429 4.20833 82.0626 4.20833H18.9376C15.4573 4.20833 12.6251 7.04054 12.6251 10.5208V90.4792C12.6251 93.9595 15.4573 96.7917 18.9376 96.7917H53.4459C54.6074 96.7917 55.5501 97.7343 55.5501 98.8958C55.5501 100.057 54.6116 101 53.4459 101Z" fill="white"/>
<path d="M23.1459 37.875C21.9844 37.875 21.0417 36.9323 21.0417 35.7708V14.7292C21.0417 13.5677 21.9844 12.625 23.1459 12.625H29.4584C34.1002 12.625 37.8751 16.3999 37.8751 21.0417C37.8751 25.6835 34.1002 29.4583 29.4584 29.4583H25.2501V35.7708C25.2501 36.9323 24.3074 37.875 23.1459 37.875ZM25.2501 25.25H29.4584C31.7814 25.25 33.6667 23.3647 33.6667 21.0417C33.6667 18.7187 31.7814 16.8333 29.4584 16.8333H25.2501V25.25Z" fill="white"/>
<path d="M65.2292 37.875C64.0677 37.875 63.125 36.9323 63.125 35.7708V14.7292C63.125 13.5677 64.0677 12.625 65.2292 12.625H71.5417C76.1835 12.625 79.9583 16.3999 79.9583 21.0417C79.9583 25.6835 76.1835 29.4583 71.5417 29.4583H67.3333V35.7708C67.3333 36.9323 66.3907 37.875 65.2292 37.875ZM67.3333 25.25H71.5417C73.8647 25.25 75.75 23.3647 75.75 21.0417C75.75 18.7187 73.8647 16.8333 71.5417 16.8333H67.3333V25.25Z" fill="white"/>
<path d="M56.8124 37.875C55.6509 37.875 54.7083 36.9323 54.7083 35.7708V14.7292C54.7083 13.5677 55.6509 12.625 56.8124 12.625C57.9739 12.625 58.9166 13.5677 58.9166 14.7292V35.7708C58.9166 36.9323 57.9739 37.875 56.8124 37.875Z" fill="white"/>
<path d="M55.7605 29.4583H45.2397C44.0782 29.4583 43.1355 28.5157 43.1355 27.3542C43.1355 26.1927 44.0782 25.25 45.2397 25.25H55.7605C56.922 25.25 57.8647 26.1927 57.8647 27.3542C57.8647 28.5157 56.922 29.4583 55.7605 29.4583Z" fill="white"/>
<path d="M44.1874 37.875C43.0259 37.875 42.0833 36.9323 42.0833 35.7708V14.7292C42.0833 13.5677 43.0259 12.625 44.1874 12.625C45.3489 12.625 46.2916 13.5677 46.2916 14.7292V35.7708C46.2916 36.9323 45.3489 37.875 44.1874 37.875Z" fill="white"/>
</g>
<defs>
<clipPath id="clip0">
<rect width="101" height="101" fill="white"/>
</clipPath>
</defs>
</svg>
