<svg width="512" height="512" viewBox="0 0 512 512" fill="none" xmlns="http://www.w3.org/2000/svg">
<path d="M496 120C496 100.688 482.23 84.5273 464 80.8086V32C464 27.5742 460.426 24 456 24H336V8C336 3.57422 332.426 0 328 0H184C179.574 0 176 3.57422 176 8V24H120C115.574 24 112 27.5742 112 32V112H56C51.5742 112 48 115.574 48 120V192.809C29.7695 196.527 16 212.688 16 232C16 251.312 29.7695 267.473 48 271.191V344C48 348.426 51.5742 352 56 352H176V368C176 372.426 179.574 376 184 376H248V400.641C220.91 404.543 200 427.848 200 456C200 486.871 225.129 512 256 512C284.152 512 307.457 491.09 311.359 464H400C404.426 464 408 460.426 408 456V240H456C460.426 240 464 236.426 464 232V159.191C482.23 155.473 496 139.312 496 120ZM192 16H320V48H192V16ZM128 40H176V56C176 60.4258 179.574 64 184 64H248V88H184C179.574 88 176 91.5742 176 96V112H128V40ZM256 277.258L210.742 232L256 186.742L301.258 232L256 277.258ZM192 136V104H320V136H192ZM32 232C32 218.77 42.7695 208 56 208C69.2305 208 80 218.77 80 232C80 245.23 69.2305 256 56 256C42.7695 256 32 245.23 32 232ZM176 320V336H64V271.191C82.2305 267.473 96 251.32 96 232C96 212.68 82.2305 196.527 64 192.809V128H176V144C176 148.426 179.574 152 184 152H248V172.121L196.121 224H176V240H196.121L248 291.879V312H184C179.574 312 176 315.574 176 320ZM192 328H320V360H192V328ZM256 496C233.945 496 216 478.055 216 456C216 433.945 233.945 416 256 416C278.055 416 296 433.945 296 456C296 478.055 278.055 496 256 496ZM392 448H311.359C307.832 423.527 288.473 404.168 264 400.641V376H328C332.426 376 336 372.426 336 368V320C336 315.574 332.426 312 328 312H264V291.879L315.879 240H392V448ZM315.879 224L264 172.121V152H328C332.426 152 336 148.426 336 144V96C336 91.5742 332.426 88 328 88H264V64H328C332.426 64 336 60.4258 336 56V40H448V80.8086C429.77 84.5273 416 100.68 416 120C416 139.32 429.77 155.473 448 159.191V224H315.879ZM456 144C442.77 144 432 133.23 432 120C432 106.77 442.77 96 456 96C469.23 96 480 106.77 480 120C480 133.23 469.23 144 456 144Z" fill="white"/>
<path d="M112 224H128V240H112V224Z" fill="white"/>
<path d="M144 224H160V240H144V224Z" fill="white"/>
</svg>
