<svg width="101" height="101" viewBox="0 0 101 101" fill="none" xmlns="http://www.w3.org/2000/svg">
<path d="M79.3008 32.7461C78.2119 32.7461 77.3281 33.6298 77.3281 34.7188C77.3281 35.8077 78.2119 36.6914 79.3008 36.6914C80.3897 36.6914 81.2734 35.8077 81.2734 34.7188C81.2734 33.6298 80.3897 32.7461 79.3008 32.7461Z" fill="white"/>
<path d="M95.082 24.8555H73.4183L67.1638 12.3463C66.1544 10.328 64.1261 9.07422 61.8704 9.07422H39.1296C36.8735 9.07422 34.8452 10.328 33.8362 12.3465L27.5817 24.8555H23.6719V22.8828C23.6719 19.6196 21.0171 16.9648 17.7539 16.9648H13.8086C10.5454 16.9648 7.89062 19.6196 7.89062 22.8828V24.8555H5.91797C2.6548 24.8555 0 27.5103 0 30.7734C0 36.1341 0 83.9225 0 86.0078C0 89.271 2.6548 91.9258 5.91797 91.9258H95.082C98.3452 91.9258 101 89.271 101 86.0078C101 80.6471 101 32.8587 101 30.7734C101 27.5103 98.3452 24.8555 95.082 24.8555ZM37.3651 14.1108C37.7016 13.4377 38.3776 13.0195 39.1296 13.0195H61.8704C62.6224 13.0195 63.2986 13.4377 63.6351 14.1108L69.0075 24.8555H31.9925L37.3651 14.1108ZM11.8359 22.8828C11.8359 21.7951 12.7209 20.9102 13.8086 20.9102H17.7539C18.8416 20.9102 19.7266 21.7951 19.7266 22.8828V24.8555H11.8359V22.8828ZM3.94531 44.5623H28.8897C26.2681 48.6577 24.8555 53.4574 24.8555 58.3906C24.8555 63.3242 26.2683 68.1046 28.8895 72.1992H3.94531V44.5623ZM50.5 36.6914C62.3622 36.6914 72.1992 46.302 72.1992 58.3906C72.1992 70.4656 62.376 80.0898 50.5 80.0898C38.6134 80.0898 28.8008 70.455 28.8008 58.3906C28.8008 46.317 38.6226 36.6914 50.5 36.6914ZM97.0547 86.0078C97.0547 87.0955 96.1698 87.9805 95.082 87.9805H5.91797C4.83025 87.9805 3.94531 87.0955 3.94531 86.0078V76.1445H32.0016C36.8218 81.1693 43.5119 84.0352 50.5 84.0352C57.4893 84.0352 64.18 81.1685 68.9986 76.1445H97.0547V86.0078ZM97.0547 72.1992H72.1103C74.7319 68.1038 76.1445 63.324 76.1445 58.3906C76.1445 53.4572 74.7319 48.6775 72.1103 44.582H97.0547V72.1992ZM97.0547 40.6367H68.9984C64.1784 35.612 57.4883 32.7461 50.5 32.7461C43.5109 32.7461 36.8202 35.6128 32.0014 40.6367H3.94531V30.7734C3.94531 29.6857 4.83025 28.8008 5.91797 28.8008C7.70934 28.8008 92.3089 28.8008 95.082 28.8008C96.1698 28.8008 97.0547 29.6857 97.0547 30.7734V40.6367Z" fill="white"/>
<path d="M56.418 16.9648H44.582C43.4925 16.9648 42.6094 17.848 42.6094 18.9375C42.6094 20.027 43.4925 20.9102 44.582 20.9102H56.418C57.5073 20.9102 58.3906 20.027 58.3906 18.9375C58.3906 17.848 57.5073 16.9648 56.418 16.9648Z" fill="white"/>
<path d="M50.5 40.6367C40.7105 40.6367 32.7461 48.6011 32.7461 58.3906C32.7461 68.1801 40.7105 76.1445 50.5 76.1445C60.2895 76.1445 68.2539 68.1801 68.2539 58.3906C68.2539 48.6011 60.2895 40.6367 50.5 40.6367ZM50.5 72.1992C42.8859 72.1992 36.6914 66.0047 36.6914 58.3906C36.6914 50.7766 42.8859 44.582 50.5 44.582C58.1141 44.582 64.3086 50.7766 64.3086 58.3906C64.3086 66.0047 58.1141 72.1992 50.5 72.1992Z" fill="white"/>
<path d="M50.5 48.5273C45.0614 48.5273 40.6367 52.952 40.6367 58.3906C40.6367 59.4801 41.5199 60.3633 42.6094 60.3633C43.6989 60.3633 44.582 59.4801 44.582 58.3906C44.582 55.1275 47.2368 52.4727 50.5 52.4727C51.5893 52.4727 52.4727 51.5895 52.4727 50.5C52.4727 49.4105 51.5893 48.5273 50.5 48.5273Z" fill="white"/>
<path d="M91.1367 32.7461H87.1914C86.1021 32.7461 85.2188 33.6293 85.2188 34.7188C85.2188 35.8082 86.1021 36.6914 87.1914 36.6914H91.1367C92.226 36.6914 93.1094 35.8082 93.1094 34.7188C93.1094 33.6293 92.226 32.7461 91.1367 32.7461Z" fill="white"/>
</svg>
