<svg width="512" height="512" viewBox="0 0 512 512" fill="none" xmlns="http://www.w3.org/2000/svg">
<g clip-path="url(#clip0)">
<path d="M488.352 232.546C473.989 225.046 458.915 218.96 443.55 214.457C439.575 213.295 435.408 215.57 434.243 219.545C433.078 223.52 435.356 227.687 439.331 228.852C453.757 233.08 467.914 238.796 481.41 245.843C482.903 246.622 484.297 247.53 485.606 248.528C477.417 248.61 469.364 248.954 463.12 250.162C449.162 252.863 446.232 259.961 446.232 265.439C446.232 280.852 466.989 294.373 490.652 294.373C492.793 294.373 494.908 294.285 497.001 294.145V301.175H458.188C449.139 288.02 433.988 279.373 416.85 279.373C399.712 279.373 384.561 288.02 375.513 301.175H160.185C151.136 288.02 135.985 279.373 118.847 279.373C101.709 279.373 86.558 288.02 77.51 301.175H15V283.305H25.1C29.242 283.305 32.6 279.948 32.6 275.805V270.145H49.812C59.985 270.145 68.262 261.869 68.262 251.696V245.24C68.262 241.431 67.106 237.77 64.92 234.651L49.65 212.866H67.79C70.353 212.866 72.74 211.556 74.117 209.394C83.475 194.697 97.496 181.234 115.789 169.379C127.232 161.963 139.604 156.39 152.571 152.691C150.288 154.002 148.038 155.363 145.834 156.792C131.513 166.075 119.418 176.435 109.886 187.583C105.927 192.214 104.989 198.544 107.437 204.104C109.868 209.624 115.128 213.179 121.166 213.383C121.166 213.383 362.433 221.534 362.505 221.535C362.577 221.535 362.649 221.529 362.722 221.527C362.927 221.522 363.131 221.514 363.331 221.493L363.356 221.492C377.412 219.953 391.913 220.106 406.459 221.947C410.573 222.472 414.321 219.557 414.841 215.448C415.361 211.339 412.451 207.586 408.341 207.066C393.816 205.227 379.312 204.949 365.175 206.236C353.342 195.193 341.768 184.541 330.735 174.539C304.297 150.585 270.141 136.343 234.561 134.437L199.649 132.567C166.632 130.805 134.81 139.18 107.63 156.793C88.936 168.907 74.197 182.71 63.762 197.867C38.818 197.975 36.599 197.636 33.964 198.119C24.711 199.554 17.599 207.554 17.599 217.207V262.559C17.599 262.588 17.595 262.617 17.595 262.646C17.595 262.675 17.599 262.704 17.599 262.733V268.306H10.519C4.71802 268.306 -0.000976562 273.021 -0.000976562 278.816V324.707C-0.000976562 329.705 3.55602 334.039 8.43402 335.009L72.2 347.891C79.546 366.478 97.679 379.668 118.846 379.668C138.727 379.668 155.942 368.039 164.048 351.227H191.71C195.852 351.227 199.21 347.87 199.21 343.727C199.21 339.584 195.852 336.227 191.71 336.227H168.532C168.827 334.032 168.993 331.797 168.993 329.522C168.993 324.901 168.352 320.429 167.176 316.177H368.52C367.344 320.429 366.703 324.901 366.703 329.522C366.703 331.797 366.87 334.032 367.164 336.227H226.71C222.568 336.227 219.21 339.584 219.21 343.727C219.21 347.87 222.568 351.227 226.71 351.227H371.648C379.754 368.04 396.969 379.668 416.849 379.668C436.73 379.668 453.945 368.039 462.051 351.227H484.901C499.844 351.227 512.001 339.07 512.001 324.127V271.517C512 255.092 502.938 240.161 488.352 232.546V232.546ZM121.165 198.056C120.995 197.671 121.186 197.449 121.287 197.329C142.351 172.694 175.256 152.674 213.111 148.307L228.755 149.145C231.248 158.38 234.618 180.615 228.713 202.006L121.673 198.389C121.501 198.383 121.306 198.377 121.165 198.056ZM342.731 205.859L244.034 202.524C248.555 183.196 247.082 163.253 244.437 150.407C272.691 154.116 299.432 166.414 320.663 185.651C327.814 192.134 335.197 198.896 342.731 205.859ZM53.262 245.239V251.695C53.262 253.597 51.715 255.144 49.812 255.144H32.6V217.205C32.6 216.525 32.771 215.89 33.05 215.316L52.637 243.26C53.045 243.842 53.262 244.527 53.262 245.239ZM15 321.03V316.175H70.518C69.094 321.326 68.511 326.547 68.761 331.891L15 321.03ZM118.847 364.665C99.468 364.665 83.701 348.898 83.701 329.519C83.701 310.14 99.468 294.373 118.847 294.373C138.227 294.373 153.994 310.14 153.994 329.519C153.994 348.898 138.227 364.665 118.847 364.665V364.665ZM490.651 279.372C473.699 279.372 462.586 270.684 461.347 266.218C464.452 264.416 474.295 263.504 490.651 263.504C492.424 263.504 494.185 263.567 495.925 263.681C496.629 266.192 497 268.822 497 271.514V279.121C494.922 279.287 492.801 279.372 490.651 279.372V279.372ZM416.849 364.665C397.47 364.665 381.703 348.898 381.703 329.519C381.703 310.14 397.47 294.373 416.849 294.373C436.229 294.373 451.996 310.14 451.996 329.519C451.996 348.898 436.229 364.665 416.849 364.665ZM484.9 336.224H466.534C466.829 334.029 466.995 331.794 466.995 329.519C466.995 324.898 466.354 320.426 465.178 316.174H497V324.124C497 330.796 491.572 336.224 484.9 336.224Z" fill="white"/>
<path d="M118.847 304.996C105.325 304.996 94.3242 315.997 94.3242 329.518C94.3242 343.04 105.325 354.041 118.847 354.041C132.369 354.041 143.37 343.04 143.37 329.518C143.37 315.997 132.369 304.996 118.847 304.996V304.996ZM118.847 339.042C113.596 339.042 109.324 334.77 109.324 329.519C109.324 324.268 113.596 319.997 118.847 319.997C124.098 319.997 128.37 324.268 128.37 329.519C128.37 334.77 124.098 339.042 118.847 339.042V339.042Z" fill="white"/>
<path d="M416.849 304.996C403.327 304.996 392.326 315.997 392.326 329.518C392.326 343.04 403.327 354.041 416.849 354.041C430.371 354.041 441.372 343.04 441.372 329.518C441.372 315.997 430.371 304.996 416.849 304.996ZM416.849 339.042C411.598 339.042 407.326 334.77 407.326 329.519C407.326 324.268 411.598 319.997 416.849 319.997C422.1 319.997 426.372 324.268 426.372 329.519C426.372 334.77 422.1 339.042 416.849 339.042Z" fill="white"/>
<path d="M256 228.686C251.858 228.686 248.5 232.043 248.5 236.186C248.5 240.329 251.858 243.686 256 243.686H261.2C265.342 243.686 268.7 240.329 268.7 236.186C268.7 232.043 265.342 228.686 261.2 228.686H256Z" fill="white"/>
<path d="M143.907 228.686C139.765 228.686 136.407 232.043 136.407 236.186C136.407 240.329 139.765 243.686 143.907 243.686H149.107C153.249 243.686 156.607 240.329 156.607 236.186C156.607 232.043 153.249 228.686 149.107 228.686H143.907Z" fill="white"/>
</g>
<defs>
<clipPath id="clip0">
<rect width="512" height="512" fill="white"/>
</clipPath>
</defs>
</svg>
