<svg width="101" height="101" viewBox="0 0 101 101" fill="none" xmlns="http://www.w3.org/2000/svg">
<g clip-path="url(#clip0)">
<path d="M85.7281 21.7318C85.3297 21.2924 84.7641 21.0419 84.1711 21.0415H16.8377C15.6756 21.0364 14.7293 21.9742 14.7242 23.1363C14.7238 23.2055 14.7269 23.2746 14.7334 23.3434L21.0459 90.6767C21.1274 91.5405 21.7306 92.2657 22.5651 92.5032L52.0233 100.92C52.2135 100.974 52.4106 101.001 52.6082 101C52.8339 101 53.0584 100.964 53.2732 100.895L78.5232 92.4779C79.3152 92.2144 79.8764 91.5078 79.954 90.6767L86.2665 23.3434C86.3219 22.7546 86.1262 22.1695 85.7281 21.7318Z" fill="white"/>
<path d="M52.6085 84.1667C52.4134 84.1655 52.2193 84.1371 52.0319 84.0825L37.3027 79.8742C36.5797 79.6685 36.0214 79.0924 35.8382 78.3633L33.7339 69.9466C33.4266 68.8259 34.0861 67.6682 35.2067 67.3608C36.3274 67.0535 37.4852 67.713 37.7925 68.8336C37.8012 68.865 37.8089 68.8964 37.816 68.9281L39.6255 76.1664L52.6081 79.8781L65.4014 76.221L69.1889 42.0872H31.5664C30.4043 42.0872 29.4622 41.145 29.4622 39.9829C29.4622 38.8208 30.4043 37.8787 31.5664 37.8787H71.5456C72.7077 37.8716 73.6554 38.808 73.6625 39.9701C73.6629 40.0518 73.6587 40.1333 73.6497 40.2143L69.4414 78.0893C69.3459 78.9376 68.7474 79.6442 67.9264 79.8779L53.1972 84.0862C53.006 84.1411 52.8076 84.1681 52.6085 84.1667Z" fill="black"/>
<path d="M69.4419 58.9167H33.6711C32.509 58.9167 31.5669 57.9746 31.5669 56.8125C31.5669 55.6504 32.509 54.7083 33.6711 54.7083H69.4419C70.604 54.7083 71.5461 55.6504 71.5461 56.8125C71.5461 57.9746 70.604 58.9167 69.4419 58.9167Z" fill="black"/>
<path d="M37.8794 12.6257H29.4626C28.3005 12.6257 27.3584 11.6836 27.3584 10.5215V2.10496C27.3586 0.942873 28.3005 0.000732422 29.4626 0.000732422H37.8794C39.0415 0.000732422 39.9836 0.942873 39.9836 2.10496C39.9836 3.26706 39.0415 4.2092 37.8794 4.2092H31.5669V8.41747H37.8794C39.0415 8.41747 39.9836 9.35961 39.9836 10.5217C39.9836 11.6838 39.0415 12.6257 37.8794 12.6257Z" fill="white"/>
<path d="M54.7126 12.625H46.2959C45.1338 12.625 44.1917 11.6828 44.1917 10.5207C44.1917 9.35863 45.1338 8.41649 46.2959 8.41649H49.633L44.8061 3.59374C43.9834 2.77312 43.9818 1.44078 44.8024 0.61799C45.1981 0.221288 45.7357 -0.0012272 46.2959 -0.000240876H54.7126C55.8747 -0.000240876 56.8169 0.9419 56.8169 2.10399C56.8169 3.26608 55.8747 4.20822 54.7126 4.20822H51.3755L56.1982 9.03097C57.021 9.8516 57.0226 11.1839 56.202 12.0067C55.8073 12.4024 55.2715 12.6248 54.7126 12.625Z" fill="white"/>
<path d="M71.5461 12.625H63.1294C61.9673 12.625 61.0252 11.6829 61.0252 10.5208C61.0252 9.35868 61.9673 8.41654 63.1294 8.41654H66.4665L61.6396 3.59399C60.8168 2.77336 60.8153 1.44103 61.6359 0.618234C62.0316 0.221533 62.5692 -0.000983063 63.1294 3.26508e-06H71.5461C72.7082 3.26508e-06 73.6504 0.942144 73.6504 2.10424C73.6504 3.26633 72.7082 4.20847 71.5461 4.20847H68.209L73.0317 9.03122C73.8545 9.85184 73.8561 11.1842 73.0355 12.007C72.6408 12.4025 72.1048 12.6248 71.5461 12.625Z" fill="white"/>
</g>
<defs>
<clipPath id="clip0">
<rect width="101" height="101" fill="white"/>
</clipPath>
</defs>
</svg>
