<?xml version="1.0" encoding="UTF-8"?>
<svg xmlns="http://www.w3.org/2000/svg" xmlns:xlink="http://www.w3.org/1999/xlink" width="512" height="512" viewBox="0 0 60 60" version="1.1"><!-- Generator: Sketch 51.3 (57544) - http://www.bohemiancoding.com/sketch --><title>024 - Education</title><desc>Created with Sketch.</desc><defs/><g id="Page-1" stroke="none" stroke-width="1" fill="none" fill-rule="evenodd"><g id="024---Education" transform="translate(-1.000000, -1.000000)" fill="#000000" fill-rule="nonzero"><path d="M2.471,38.391 C2.80026375,38.6192011 3.14777307,38.8198802 3.51,38.991 C3.942,39.212 4.667,39.582 4.717,39.841 C4.7807262,40.1827503 4.73995247,40.5357742 4.6,40.854 C4.451,41.174 4.294,41.449 4.16,41.687 C3.793,42.333 3.181,43.416 4.105,44.172 C4.321,44.372 4.694,44.661 5.035,44.922 C4.78441543,45.359553 4.67085435,45.8622176 4.709,46.365 C4.76229209,46.7608192 4.97692342,47.1169696 5.302,47.349 C5.524,47.505 5.761,47.641 5.995,47.774 C6.586,48.111 6.817,48.267 6.895,48.581 C6.95072661,48.9834757 6.91657463,49.3932994 6.795,49.781 C6.737,50.049 6.679,50.317 6.646,50.581 C6.54659663,51.4922755 6.6588426,52.4141982 6.974,53.275 C7.4234219,54.863697 8.8602194,55.9706445 10.511,56 C10.7865898,55.9991281 11.0613626,55.9699754 11.331,55.913 C14.1877405,55.2356794 17.0027993,54.3932653 19.762,53.39 C22.015,54.712 23.438,58.732 23.809,60.241 C23.9197719,60.6870872 24.3203652,61.0002183 24.78,61 L49.88,60.93 C50.198095,60.9293833 50.4969218,60.7774667 50.6848608,60.5208273 C50.8727998,60.2641879 50.9274293,59.9334437 50.832,59.63 C50.5840507,58.9525717 50.2427579,58.3130683 49.818,57.73 C49.5784791,57.3851857 49.3623284,57.0247119 49.171,56.651 C48.7194175,55.7335946 48.3418821,54.7815634 48.042,53.804 C47.4712015,51.8714821 47.0756037,49.8914849 46.86,47.888 C46.5081643,44.8963057 46.9614389,41.8649237 48.173,39.107 C48.9122569,37.5774407 49.8234731,36.137142 50.889,34.814 C51.489,34.004 52.112,33.165 52.669,32.288 C52.885,31.951 53.069,31.618 53.24,31.288 C54.954018,30.3240334 56.0105668,28.5064632 56,26.54 L56,16.052 L59.916,13.87 C60.5863977,13.4860309 60.9999608,12.7725706 60.9999608,12 C60.9999608,11.2274294 60.5863977,10.5139691 59.916,10.13 L43.987,1.257 C43.3735961,0.913031705 42.6254039,0.913031705 42.012,1.257 L40.053,2.348 C37.1617069,1.29985877 34.0871863,0.851746361 31.017,1.031 C27.7634281,1.25682993 24.5307746,1.72073844 21.345,2.419 C16.836,3.319 13.558,4.9 11.323,7.264 C9.55800834,9.15204797 8.19329313,11.3777039 7.311,13.807 C6.95040811,14.8521387 6.65451487,15.9184898 6.425,17 L6.325,17.422 C6.11188832,18.2074692 5.82459624,18.9709027 5.467,19.702 C5.267,20.157 5.061,20.612 4.88,21.086 C4.65224528,21.611379 4.56207696,22.1861159 4.618,22.756 C4.81913234,23.6524828 5.33679367,24.4463722 6.076,24.992 C6.564,25.44 6.885,25.756 6.889,26.031 C6.85287471,26.1828944 6.79565216,26.3289802 6.719,26.465 C5.52119196,28.9879725 4.05327497,31.3735891 2.341,33.58 C1.618,34.46 0.86,35.488 1.019,36.517 C1.23194481,37.3111886 1.75515682,37.9864637 2.471,38.391 Z M54,26.54 C54.0129031,27.8664044 53.2613797,29.0818409 52.069,29.663 C51.6182588,29.8850341 51.1224606,30.0003439 50.62,30 L37.62,30 C37.1541827,29.5917486 36.5994468,29.2979441 36,29.142 L36,19.394 L42.013,22.743 C42.6264039,23.0869683 43.3745961,23.0869683 43.988,22.743 L54.0001635,17.166 L54,26.54 Z M31.88,17.1 L34,18.28 L34,29.142 C33.771582,29.1999368 33.5487187,29.2779056 33.334,29.375 C32.4163944,28.7233276 31.873836,27.6654506 31.88,26.54 L31.88,17.1 Z M33,33 C33,31.8954305 33.8954305,31 35,31 C36.1045695,31 37,31.8954305 37,33 L37,34 C37,35.1045695 36.1045695,36 35,36 C33.8954305,36 33,35.1045695 33,34 L33,33 Z M43.015,3 L58.943,11.873 C58.9792197,11.9035908 59.0001154,11.9485904 59.0001154,11.996 C59.0001154,12.0434096 58.9792197,12.0884092 58.943,12.119 L42.985,21 L36.841,17.577 L40,14.418 C40.9494603,14.8158319 41.9706552,15.0139438 43,15 C45.851,15 48,13.71 48,12 C48,10.29 45.851,9 43,9 C40.149,9 38,10.29 38,12 C38.0027479,12.4303995 38.1382459,12.8494658 38.388,13.2 L35.025,16.563 L27.057,12.125 C27.0207803,12.0944092 26.9998846,12.0494096 26.9998846,12.002 C26.9998846,11.9545904 27.0207803,11.9095908 27.057,11.879 L43.015,3 Z M40,12 C40,11.751 41.064,11 43,11 C44.936,11 46,11.751 46,12 C46,12.249 44.936,13 43,13 C41.064,13 40,12.249 40,12 Z M3.924,34.8 C5.71353526,32.4953873 7.24784001,30.0034832 8.5,27.368 C8.7352421,26.9548156 8.86763342,26.491103 8.886,26.016 C8.78386015,25.0104644 8.25093667,24.0985488 7.425,23.516 C7.025,23.145 6.639,22.795 6.595,22.471 C6.60291104,22.2346006 6.65550369,22.0018357 6.75,21.785 C6.913,21.357 7.102,20.937 7.29,20.517 C7.70056527,19.6709167 8.02842184,18.787144 8.269,17.878 L8.369,17.452 C8.58139683,16.4521828 8.85491022,15.4663323 9.188,14.5 C9.97697112,12.3245803 11.1973938,10.3310192 12.776,8.639 C14.689,6.615 17.7,5.183 21.74,4.38 C24.8299393,3.70168451 27.9652696,3.24981727 31.121,3.028 C33.3202806,2.90146041 35.5257514,3.12285121 37.656,3.684 L26.084,10.13 C25.4136023,10.5139691 25.0000392,11.2274294 25.0000392,12 C25.0000392,12.7725706 25.4136023,13.4860309 26.084,13.87 L29.884,15.985 L29.884,26.54 C29.8801886,28.1252121 30.5677712,29.6332927 31.767,30.67 C31.2715357,31.3460998 31.0030213,32.1617955 31,33 L31,34 C31,36.209139 32.790861,38 35,38 C37.209139,38 39,36.209139 39,34 L39,33 C38.9957763,32.6619541 38.9480507,32.3258584 38.858,32 L50.458,32 C50.077,32.55 49.684,33.095 49.291,33.625 C48.1338779,35.0688493 47.146408,36.6408155 46.348,38.31 C44.9942182,41.3945661 44.4881396,44.7845333 44.882,48.13 C45.1104205,50.2534038 45.5297841,52.3518951 46.135,54.4 C46.4639651,55.4752817 46.8789726,56.5223313 47.376,57.531 C47.6039597,57.981734 47.8629147,58.4161101 48.151,58.831 L48.218,58.931 L25.536,59 C24.8717541,56.627989 23.6669103,54.4421559 22.016,52.614 L22.916,52.298 C23.585,52.065 24.089,51.889 24.347,51.806 C28.632,50.451 30.774,48.5 30.716,46.006 C30.7126185,45.7412172 30.6031948,45.4888497 30.4122284,45.3054016 C30.2212619,45.1219535 29.9647051,45.0227492 29.7,45.03 C29.1480455,45.043101 28.711146,45.5010397 28.724,46.053 C28.748,47.082 27.905,48.583 23.747,49.898 C23.476,49.985 22.955,50.167 22.264,50.408 C21.52,50.668 20.575,50.999 19.531,51.353 L19.525,51.353 C16.7107073,52.3842961 13.8392719,53.2524045 10.925,53.953 C9.99279709,54.1310907 9.08566677,53.5435277 8.867,52.62 C8.65403967,52.0505889 8.57367075,51.4401271 8.632,50.835 C8.659,50.626 8.706,50.417 8.752,50.208 C8.95538984,49.5169007 8.98493135,48.7862637 8.838,48.081 C8.54781232,47.1628818 7.87254397,46.4164365 6.988,46.036 C6.918,45.997 6.849,45.957 6.78,45.917 C6.88833948,45.6989801 7.01761396,45.492007 7.166,45.299 C7.33365336,45.0863106 7.40787187,44.8147167 7.37168403,44.5463235 C7.33549619,44.2779303 7.19199688,44.0356917 6.974,43.875 C6.734,43.699 6.168,43.275 5.753,42.941 C5.801,42.854 5.853,42.758 5.904,42.672 C6.061,42.396 6.241,42.072 6.415,41.706 C6.73195159,41.0051861 6.82518406,40.2237094 6.682,39.468 C6.442,38.248 5.273,37.65 4.42,37.214 C4.13261917,37.0772821 3.8570164,36.9170713 3.596,36.735 C3.3817006,36.5914967 3.18087589,36.4288287 2.996,36.249 C3,36.1 3.162,35.731 3.924,34.8 Z" id="Shape"/><path d="M10.966,19.541 C11.5036006,19.6657991 12.0406657,19.3314761 12.166,18.794 L12.266,18.361 C12.4412611,17.5251451 12.6646327,16.7001058 12.935,15.89 C13.5378535,14.2207868 14.4711212,12.6902822 15.679,11.39 C16.9752482,10.1677817 18.56199,9.29662258 20.289,8.859 C20.6307245,8.75467845 20.8908361,8.47597349 20.9713533,8.12787058 C21.0518705,7.77976768 20.9405607,7.41515194 20.6793533,7.17137058 C20.4181459,6.92758923 20.0467245,6.84167845 19.705,6.946 C17.6448677,7.48195529 15.7575511,8.5396103 14.225,10.017 C12.8322993,11.5141486 11.7561411,13.277021 11.061,15.2 C10.7612456,16.087314 10.5141488,16.9915545 10.321,17.908 L10.221,18.341 C10.0960876,18.8779763 10.4293361,19.4147523 10.966,19.541 Z" id="Shape"/><circle id="Oval" cx="10" cy="22" r="1"/></g></g></svg>
