<svg width="101" height="101" viewBox="0 0 101 101" fill="none" xmlns="http://www.w3.org/2000/svg">
<g clip-path="url(#clip0)">
<path d="M21.0461 0.00012207C19.884 0.00012207 18.9419 0.942261 18.9419 2.10435V10.5211C18.9419 11.6832 19.884 12.6253 21.0461 12.6253C22.2082 12.6253 23.1504 11.6832 23.1504 10.5211V2.10415C23.1504 0.942064 22.2082 0.00012207 21.0461 0.00012207Z" fill="white"/>
<path d="M29.4626 8.41671H21.0459C19.8838 8.41671 18.9417 7.47457 18.9417 6.31248C18.9417 5.15039 19.8838 4.20825 21.0459 4.20825H29.4626C30.6247 4.20825 31.5668 5.15039 31.5668 6.31248C31.5668 7.47457 30.6249 8.41671 29.4626 8.41671Z" fill="white"/>
<path d="M29.4626 12.6252C28.3005 12.6252 27.3584 11.683 27.3584 10.5209V2.10423C27.3584 0.942139 28.3005 0 29.4626 0C30.6247 0 31.5669 0.942139 31.5669 2.10423V10.5209C31.5669 11.683 30.6249 12.6252 29.4626 12.6252Z" fill="white"/>
<path d="M46.2961 4.20846H37.8794C36.7173 4.20846 35.7751 3.26632 35.7751 2.10423C35.7751 0.942139 36.7173 0 37.8794 0H46.2961C47.4582 0 48.4003 0.942139 48.4003 2.10423C48.4003 3.26632 47.4582 4.20846 46.2961 4.20846Z" fill="white"/>
<path d="M42.0876 12.6252C40.9255 12.6252 39.9834 11.683 39.9834 10.5209V2.10423C39.9834 0.942139 40.9255 0 42.0876 0C43.2497 0 44.1919 0.942139 44.1919 2.10423V10.5209C44.1919 11.683 43.2499 12.6252 42.0876 12.6252Z" fill="white"/>
<path d="M67.3376 12.6251C66.1755 12.6251 65.2333 11.683 65.2333 10.5209V8.41665L62.7083 11.7834C61.9433 12.7131 60.5696 12.8466 59.6399 12.0816C59.531 11.9921 59.4312 11.8923 59.3416 11.7834L56.8166 8.41665V10.5209C56.8166 11.683 55.8745 12.6251 54.7124 12.6251C53.5503 12.6251 52.6082 11.683 52.6082 10.5209V2.10416C52.6082 0.942075 53.5503 -6.40738e-05 54.7124 -6.40738e-05C55.3746 -6.40738e-05 55.9984 0.311812 56.3956 0.841667L61.0249 7.01114L65.6541 0.841667C66.3514 -0.0880443 67.6703 -0.276433 68.5999 0.4209C69.1297 0.818192 69.4416 1.44194 69.4416 2.10416V10.5209C69.4418 11.683 68.4998 12.6251 67.3376 12.6251Z" fill="white"/>
<path d="M82.0669 12.6252H75.7544C74.5923 12.6252 73.6501 11.683 73.6501 10.5209V2.10423C73.6501 0.942139 74.5923 0 75.7544 0C76.9165 0 77.8586 0.942139 77.8586 2.10423V8.41672H82.0669C83.229 8.41672 84.1711 9.35885 84.1711 10.5209C84.1711 11.683 83.229 12.6252 82.0669 12.6252Z" fill="white"/>
<path d="M85.728 21.732C85.3295 21.2927 84.764 21.0422 84.171 21.0418H16.8377C15.6756 21.0366 14.7293 21.9744 14.7242 23.1365C14.7238 23.2058 14.7269 23.2748 14.7334 23.3437L21.0459 90.6768C21.1274 91.5406 21.7306 92.2658 22.5651 92.5033L52.0233 100.92C52.2134 100.974 52.4105 101.001 52.6082 101C52.8338 101 53.0583 100.964 53.2731 100.895L78.5231 92.478C79.3151 92.2145 79.8763 91.5079 79.9539 90.6768L86.2663 23.3437C86.3218 22.7546 86.1263 22.1695 85.728 21.732Z" fill="white"/>
<path d="M52.6082 84.1665C52.4131 84.1653 52.219 84.1369 52.0316 84.0823L37.3026 79.874C36.5796 79.6683 36.0214 79.0923 35.8381 78.3632L33.7339 69.9465C33.4265 68.8258 34.086 67.6681 35.2067 67.3607C36.3273 67.0534 37.4851 67.7128 37.7924 68.8335C37.8011 68.8649 37.8088 68.8962 37.8159 68.928L39.6254 76.1662L52.5619 79.8612L63.2763 76.2884L65.0101 58.9164H33.6708C32.6047 58.9249 31.7009 58.1348 31.5665 57.0773L29.4623 40.2441C29.3159 39.0912 30.1316 38.038 31.2844 37.8915C31.3779 37.8796 31.4722 37.8739 31.5663 37.8747H71.5455C72.7076 37.8747 73.6497 38.8168 73.6497 39.9789C73.6497 41.141 72.7076 42.0832 71.5455 42.0832H33.9485L35.5266 54.7081H67.3374C68.4995 54.7022 69.4462 55.6396 69.4521 56.8017C69.4525 56.8755 69.449 56.9493 69.4417 57.0226L67.3374 78.0643C67.2558 78.8895 66.6973 79.5898 65.9108 79.8529L53.2858 84.0612C53.0669 84.132 52.8382 84.1677 52.6082 84.1665Z" fill="black"/>
</g>
<defs>
<clipPath id="clip0">
<rect width="101" height="101" fill="white"/>
</clipPath>
</defs>
</svg>
