<svg width="512" height="512" viewBox="0 0 512 512" fill="none" xmlns="http://www.w3.org/2000/svg">
<g clip-path="url(#clip0)">
<path d="M256.235 328.003C251.813 328.003 248.196 324.429 248.196 320.003C248.196 315.581 251.731 312.003 256.149 312.003H256.235C260.653 312.003 264.235 315.581 264.235 320.003C264.235 324.429 260.653 328.003 256.235 328.003Z" fill="white"/>
<path d="M256.235 368.003C251.813 368.003 248.196 364.428 248.196 360.003C248.196 355.581 251.731 352.003 256.149 352.003H256.235C260.653 352.003 264.235 355.581 264.235 360.003C264.235 364.428 260.653 368.003 256.235 368.003Z" fill="white"/>
<path d="M256.235 408.002C251.813 408.002 248.196 404.428 248.196 400.002C248.196 395.58 251.731 392.002 256.149 392.002H256.235C260.653 392.002 264.235 395.58 264.235 400.002C264.235 404.428 260.653 408.002 256.235 408.002Z" fill="white"/>
<path d="M256.235 448.002C251.813 448.002 248.196 444.427 248.196 440.002C248.196 435.58 251.731 432.002 256.149 432.002H256.235C260.653 432.002 264.235 435.58 264.235 440.002C264.235 444.427 260.653 448.002 256.235 448.002Z" fill="white"/>
<path d="M448.232 384.002C443.811 384.002 440.193 380.428 440.193 376.002C440.193 371.581 443.729 368.002 448.146 368.002H448.232C452.65 368.002 456.232 371.581 456.232 376.002C456.232 380.428 452.65 384.002 448.232 384.002Z" fill="white"/>
<path d="M255.997 256.004C211.884 256.004 175.998 220.118 175.998 176.005C175.998 171.583 179.572 168.005 183.997 168.005C188.423 168.005 191.997 171.583 191.997 176.005C191.997 211.294 220.708 240.004 255.997 240.004C291.285 240.004 319.996 211.294 319.996 176.005C319.996 171.583 323.57 168.005 327.996 168.005C332.421 168.005 335.995 171.583 335.995 176.005C335.995 220.118 300.109 256.004 255.997 256.004Z" fill="white"/>
<path d="M183.998 184.006C179.572 184.006 175.998 180.432 175.998 176.006V120.006C175.998 115.584 179.572 112.006 183.998 112.006C188.423 112.006 191.998 115.584 191.998 120.006V176.006C191.998 180.432 188.423 184.006 183.998 184.006Z" fill="white"/>
<path d="M327.996 184.006C323.57 184.006 319.996 180.432 319.996 176.006V119.998C319.996 115.576 323.57 111.998 327.996 111.998C332.422 111.998 335.996 115.576 335.996 119.998V176.006C335.996 180.432 332.422 184.006 327.996 184.006Z" fill="white"/>
<path d="M79.9989 424.002C75.5732 424.002 71.999 420.427 71.999 416.002C71.999 411.58 75.5732 408.002 79.9989 408.002C110.87 408.002 135.998 382.877 135.998 352.003C135.998 347.581 139.572 344.003 143.998 344.003C148.424 344.003 151.998 347.581 151.998 352.003C151.998 391.709 119.702 424.002 79.9989 424.002Z" fill="white"/>
<path d="M143.998 344.003C139.572 344.003 135.998 340.429 135.998 336.003C135.998 291.894 171.884 256.016 215.997 256.016C220.423 256.016 223.997 259.59 223.997 264.016C223.997 268.437 220.423 272.015 215.997 272.015C180.708 272.015 151.998 300.718 151.998 336.003C151.998 340.429 148.424 344.003 143.998 344.003Z" fill="white"/>
<path d="M79.9989 464.001C75.5732 464.001 71.999 460.427 71.999 456.001C71.999 451.579 75.5732 448.001 79.9989 448.001C132.936 448.001 175.998 404.939 175.998 352.003C175.998 347.581 179.572 344.003 183.998 344.003C188.423 344.003 191.997 347.581 191.997 352.003C191.997 413.764 141.76 464.001 79.9989 464.001Z" fill="white"/>
<path d="M75.9995 464.002C60.5581 464.002 47.9995 451.443 47.9995 436.002C47.9995 420.564 60.5581 408.002 75.9995 408.002C80.4253 408.002 83.9995 411.58 83.9995 416.002C83.9995 420.428 80.4253 424.002 75.9995 424.002C69.3823 424.002 63.9995 429.389 63.9995 436.002C63.9995 442.619 69.3823 448.002 75.9995 448.002C80.4253 448.002 83.9995 451.58 83.9995 456.002C83.9995 460.428 80.4253 464.002 75.9995 464.002Z" fill="white"/>
<path d="M143.998 360.003C139.572 360.003 135.998 356.429 135.998 352.003V336.003C135.998 331.581 139.572 328.003 143.998 328.003C148.424 328.003 151.998 331.581 151.998 336.003V352.003C151.998 356.429 148.424 360.003 143.998 360.003Z" fill="white"/>
<path d="M183.997 472.001C179.572 472.001 175.998 468.427 175.998 464.001V352.003C175.998 347.581 179.572 344.003 183.997 344.003C188.423 344.003 191.997 347.581 191.997 352.003V464.001C191.997 468.427 188.423 472.001 183.997 472.001Z" fill="white"/>
<path d="M79.999 464.001H75.999C71.5732 464.001 67.999 460.427 67.999 456.001C67.999 451.58 71.5732 448.001 75.999 448.001H79.999C84.4248 448.001 87.999 451.58 87.999 456.001C87.999 460.427 84.4248 464.001 79.999 464.001Z" fill="white"/>
<path d="M79.999 424.002H75.999C71.5732 424.002 67.999 420.428 67.999 416.002C67.999 411.58 71.5732 408.002 75.999 408.002H79.999C84.4248 408.002 87.999 411.58 87.999 416.002C87.999 420.428 84.4248 424.002 79.999 424.002Z" fill="white"/>
<path d="M431.994 424.002C392.292 424.002 359.995 391.709 359.995 352.003C359.995 347.581 363.569 344.003 367.995 344.003C372.421 344.003 375.995 347.581 375.995 352.003C375.995 382.877 401.123 408.002 431.994 408.002C436.42 408.002 439.994 411.58 439.994 416.002C439.994 420.427 436.42 424.002 431.994 424.002Z" fill="white"/>
<path d="M367.995 344.003C363.569 344.003 359.995 340.429 359.995 336.003C359.995 300.718 331.285 272.015 295.996 272.015C291.57 272.015 287.996 268.437 287.996 264.016C287.996 259.59 291.57 256.016 295.996 256.016C340.109 256.016 375.995 291.894 375.995 336.003C375.995 340.429 372.421 344.003 367.995 344.003Z" fill="white"/>
<path d="M431.995 464.001C370.234 464.001 319.996 413.764 319.996 352.003C319.996 347.581 323.57 344.003 327.996 344.003C332.422 344.003 335.996 347.581 335.996 352.003C335.996 404.939 379.058 448.001 431.995 448.001C436.42 448.001 439.995 451.579 439.995 456.001C439.995 460.427 436.42 464.001 431.995 464.001Z" fill="white"/>
<path d="M435.995 464.002C431.569 464.002 427.995 460.428 427.995 456.002C427.995 451.58 431.569 448.002 435.995 448.002C442.612 448.002 447.995 442.619 447.995 436.002C447.995 429.389 442.612 424.002 435.995 424.002C431.569 424.002 427.995 420.428 427.995 416.002C427.995 411.58 431.569 408.002 435.995 408.002C451.436 408.002 463.995 420.564 463.995 436.002C463.995 451.443 451.436 464.002 435.995 464.002Z" fill="white"/>
<path d="M367.995 360.003C363.569 360.003 359.995 356.429 359.995 352.003V336.003C359.995 331.581 363.569 328.003 367.995 328.003C372.421 328.003 375.995 331.581 375.995 336.003V352.003C375.995 356.429 372.421 360.003 367.995 360.003Z" fill="white"/>
<path d="M327.996 472.001C323.57 472.001 319.996 468.427 319.996 464.001V352.003C319.996 347.581 323.57 344.003 327.996 344.003C332.422 344.003 335.996 347.581 335.996 352.003V464.001C335.996 468.427 332.422 472.001 327.996 472.001Z" fill="white"/>
<path d="M435.995 464.001H431.995C427.569 464.001 423.995 460.427 423.995 456.001C423.995 451.58 427.569 448.001 431.995 448.001H435.995C440.42 448.001 443.995 451.58 443.995 456.001C443.995 460.427 440.42 464.001 435.995 464.001Z" fill="white"/>
<path d="M435.995 424.002H431.995C427.569 424.002 423.995 420.428 423.995 416.002C423.995 411.58 427.569 408.002 431.995 408.002H435.995C440.42 408.002 443.995 411.58 443.995 416.002C443.995 420.428 440.42 424.002 435.995 424.002Z" fill="white"/>
<path d="M327.996 472.001C323.57 472.001 319.996 468.427 319.996 464.001V352.003C319.996 347.581 323.57 344.003 327.996 344.003C332.422 344.003 335.996 347.581 335.996 352.003V464.001C335.996 468.427 332.422 472.001 327.996 472.001Z" fill="white"/>
<path d="M271.997 288.004C269.95 288.004 267.899 287.223 266.34 285.66C263.211 282.535 263.211 277.477 266.34 274.352L282.34 258.352C285.469 255.223 290.524 255.223 293.653 258.352C296.782 261.477 296.782 266.535 293.653 269.66L277.653 285.66C276.094 287.223 274.043 288.004 271.997 288.004Z" fill="white"/>
<path d="M271.989 288.004C270.79 288.004 269.563 287.734 268.422 287.164L252.422 279.164C248.469 277.191 246.868 272.383 248.844 268.43C250.829 264.476 255.637 262.894 259.583 264.855L275.583 272.855C279.532 274.828 281.133 279.637 279.157 283.59C277.751 286.391 274.926 288.004 271.989 288.004Z" fill="white"/>
<path d="M240.005 288.004C237.067 288.004 234.243 286.391 232.837 283.582C230.86 279.629 232.462 274.82 236.411 272.848L252.411 264.848C256.356 262.887 261.165 264.469 263.149 268.422C265.126 272.375 263.524 277.183 259.571 279.156L243.571 287.156C242.43 287.734 241.204 288.004 240.005 288.004V288.004Z" fill="white"/>
<path d="M239.997 288.004C237.95 288.004 235.899 287.223 234.341 285.66L218.341 269.66C215.212 266.535 215.212 261.477 218.341 258.352C221.47 255.223 226.524 255.223 229.653 258.352L245.653 274.352C248.782 277.477 248.782 282.535 245.653 285.66C244.095 287.223 242.044 288.004 239.997 288.004Z" fill="white"/>
<path d="M223.997 272.004C219.571 272.004 215.997 268.43 215.997 264.004V240.512C215.997 236.086 219.571 232.512 223.997 232.512C228.423 232.512 231.997 236.086 231.997 240.512V264.004C231.997 268.43 228.423 272.004 223.997 272.004Z" fill="white"/>
<path d="M287.997 272.004C283.571 272.004 279.997 268.43 279.997 264.004V240.512C279.997 236.086 283.571 232.512 287.997 232.512C292.422 232.512 295.997 236.086 295.997 240.512V264.004C295.997 268.43 292.422 272.004 287.997 272.004Z" fill="white"/>
<path d="M375.995 272.005C371.569 272.005 367.995 268.43 367.995 264.005C367.995 259.583 371.569 256.005 375.995 256.005C402.468 256.005 423.995 234.477 423.995 208.005C423.995 203.583 427.569 200.005 431.995 200.005C436.421 200.005 439.995 203.583 439.995 208.005C439.995 243.294 411.284 272.005 375.995 272.005Z" fill="white"/>
<path d="M375.995 312.003C371.569 312.003 367.995 308.429 367.995 304.003C367.995 299.581 371.569 296.003 375.995 296.003C424.514 296.003 463.994 256.527 463.994 208.005C463.994 203.583 467.568 200.005 471.994 200.005C476.419 200.005 479.994 203.583 479.994 208.005C479.994 265.351 433.338 312.003 375.995 312.003Z" fill="white"/>
<path d="M471.995 212.005C467.569 212.005 463.995 208.431 463.995 204.005C463.995 197.392 458.612 192.005 451.995 192.005C445.377 192.005 439.995 197.392 439.995 204.005C439.995 208.431 436.42 212.005 431.995 212.005C427.569 212.005 423.995 208.431 423.995 204.005C423.995 188.567 436.553 176.005 451.995 176.005C467.436 176.005 479.995 188.567 479.995 204.005C479.995 208.431 476.42 212.005 471.995 212.005Z" fill="white"/>
<path d="M471.994 216.005C467.568 216.005 463.994 212.43 463.994 208.005V204.005C463.994 199.583 467.568 196.005 471.994 196.005C476.42 196.005 479.994 199.583 479.994 204.005V208.005C479.994 212.43 476.42 216.005 471.994 216.005Z" fill="white"/>
<path d="M431.995 216.005C427.569 216.005 423.995 212.43 423.995 208.005V204.005C423.995 199.583 427.569 196.005 431.995 196.005C436.42 196.005 439.995 199.583 439.995 204.005V208.005C439.995 212.43 436.42 216.005 431.995 216.005Z" fill="white"/>
<path d="M375.995 272.015H287.996C283.571 272.015 279.997 268.437 279.997 264.016C279.997 259.59 283.571 256.016 287.996 256.016H375.995C380.421 256.016 383.995 259.59 383.995 264.016C383.995 268.437 380.421 272.015 375.995 272.015Z" fill="white"/>
<path d="M375.996 312.003H360.515C356.093 312.003 352.515 308.429 352.515 304.003C352.515 299.582 356.093 296.003 360.515 296.003H375.996C380.421 296.003 383.996 299.582 383.996 304.003C383.996 308.429 380.421 312.003 375.996 312.003Z" fill="white"/>
<path d="M135.999 272.005C100.71 272.005 71.999 243.294 71.999 208.005C71.999 203.583 75.5732 200.005 79.999 200.005C84.4248 200.005 87.999 203.583 87.999 208.005C87.999 234.477 109.526 256.005 135.999 256.005C140.425 256.005 143.999 259.583 143.999 264.005C143.999 268.43 140.425 272.005 135.999 272.005Z" fill="white"/>
<path d="M135.998 312.003C78.6552 312.003 31.9995 265.351 31.9995 208.005C31.9995 203.583 35.5737 200.005 39.9994 200.005C44.4251 200.005 47.9993 203.583 47.9993 208.005C47.9993 256.527 87.4793 296.003 135.998 296.003C140.424 296.003 143.998 299.581 143.998 304.003C143.998 308.429 140.424 312.003 135.998 312.003Z" fill="white"/>
<path d="M79.9995 212.005C75.5737 212.005 71.9995 208.431 71.9995 204.005C71.9995 197.392 66.6167 192.005 59.9995 192.005C53.3823 192.005 47.9995 197.392 47.9995 204.005C47.9995 208.431 44.4253 212.005 39.9995 212.005C35.5737 212.005 31.9995 208.431 31.9995 204.005C31.9995 188.567 44.5581 176.005 59.9995 176.005C75.4409 176.005 87.9995 188.567 87.9995 204.005C87.9995 208.431 84.4253 212.005 79.9995 212.005Z" fill="white"/>
<path d="M39.9995 216.005C35.5737 216.005 31.9995 212.43 31.9995 208.005V204.005C31.9995 199.583 35.5737 196.005 39.9995 196.005C44.4253 196.005 47.9995 199.583 47.9995 204.005V208.005C47.9995 212.43 44.4253 216.005 39.9995 216.005Z" fill="white"/>
<path d="M79.999 216.005C75.5732 216.005 71.999 212.43 71.999 208.005V204.005C71.999 199.583 75.5732 196.005 79.999 196.005C84.4248 196.005 87.999 199.583 87.999 204.005V208.005C87.999 212.43 84.4248 216.005 79.999 216.005Z" fill="white"/>
<path d="M223.997 272.015H135.998C131.573 272.015 127.999 268.437 127.999 264.016C127.999 259.59 131.573 256.016 135.998 256.016H223.997C228.423 256.016 231.997 259.59 231.997 264.016C231.997 268.437 228.423 272.015 223.997 272.015Z" fill="white"/>
<path d="M151.479 312.003H135.999C131.573 312.003 127.999 308.429 127.999 304.003C127.999 299.582 131.573 296.003 135.999 296.003H151.479C155.901 296.003 159.479 299.582 159.479 304.003C159.479 308.429 155.893 312.003 151.479 312.003Z" fill="white"/>
<path d="M79.9988 400.002H31.9994C27.5737 400.002 23.9995 396.428 23.9995 392.002V328.003C23.9995 323.581 27.5737 320.003 31.9994 320.003H79.9988C84.4245 320.003 87.9987 323.581 87.9987 328.003V392.002C87.9987 396.428 84.4245 400.002 79.9988 400.002ZM39.9993 384.002H71.9989V336.003H39.9993V384.002Z" fill="white"/>
<path d="M471.994 400.002H423.995C419.569 400.002 415.995 396.428 415.995 392.002V320.003C415.995 315.581 419.569 312.003 423.995 312.003H471.994C476.42 312.003 479.994 315.581 479.994 320.003V392.002C479.994 396.428 476.42 400.002 471.994 400.002ZM431.994 384.002H463.994V328.003H431.994V384.002Z" fill="white"/>
<path d="M103.999 384.003H79.999C75.5732 384.003 71.999 380.429 71.999 376.003V344.015C71.999 339.589 75.5732 336.015 79.999 336.015H103.999C108.425 336.015 111.999 339.589 111.999 344.015V376.003C111.999 380.429 108.425 384.003 103.999 384.003V384.003ZM87.999 368.003H95.999V352.015H87.999V368.003Z" fill="white"/>
<path d="M103.999 168.005H7.9999C3.57417 168.005 0 164.431 0 160.005V48.0065C0 43.5847 3.57417 40.0066 7.9999 40.0066H103.999C108.424 40.0066 111.999 43.5847 111.999 48.0065V160.005C111.999 164.431 108.424 168.005 103.999 168.005ZM15.9998 152.005H95.9988V56.0064H15.9998V152.005Z" fill="white"/>
<path d="M40.0075 80.0068C37.4255 80.0068 34.8786 78.7607 33.3435 76.4482L17.3435 52.456C14.8864 48.7841 15.8786 43.8154 19.5583 41.3623C23.2224 38.9052 28.2067 39.8974 30.656 43.5771L46.656 67.5693C49.113 71.2412 48.1208 76.2099 44.4411 78.663C43.0778 79.5693 41.527 80.0068 40.0075 80.0068Z" fill="white"/>
<path d="M71.9995 80.0063H39.9995C35.5737 80.0063 31.9995 76.4321 31.9995 72.0063C31.9995 67.5845 35.5737 64.0063 39.9995 64.0063H71.9995C76.4253 64.0063 79.9995 67.5845 79.9995 72.0063C79.9995 76.4321 76.4253 80.0063 71.9995 80.0063Z" fill="white"/>
<path d="M71.9914 80.0067C70.4719 80.0067 68.9289 79.5692 67.5578 78.663C63.8781 76.2098 62.8859 71.2489 65.343 67.5692L81.343 43.5692C83.7922 39.8973 88.7414 38.8973 92.4406 41.3544C96.1203 43.8075 97.1125 48.7684 94.6555 52.4481L78.6555 76.4481C77.1203 78.7606 74.5734 80.0067 71.9914 80.0067Z" fill="white"/>
<path d="M71.9995 112.006H39.9995C35.5737 112.006 31.9995 108.432 31.9995 104.006C31.9995 99.584 35.5737 96.0059 39.9995 96.0059H71.9995C76.4253 96.0059 79.9995 99.584 79.9995 104.006C79.9995 108.432 76.4253 112.006 71.9995 112.006Z" fill="white"/>
<path d="M71.9995 136.006H39.9995C35.5737 136.006 31.9995 132.431 31.9995 128.006C31.9995 123.584 35.5737 120.006 39.9995 120.006H71.9995C76.4253 120.006 79.9995 123.584 79.9995 128.006C79.9995 132.431 76.4253 136.006 71.9995 136.006Z" fill="white"/>
<path d="M503.994 152.005H391.995C387.569 152.005 383.995 148.431 383.995 144.005V72.0062C383.995 67.5844 387.569 64.0063 391.995 64.0063H503.994C508.419 64.0063 511.993 67.5844 511.993 72.0062V144.005C511.993 148.431 508.419 152.005 503.994 152.005ZM399.995 136.005H495.994V80.0061H399.995V136.005Z" fill="white"/>
<path d="M447.995 128.006C446.155 128.006 444.3 127.378 442.796 126.081L386.796 78.0807C383.436 75.2096 383.042 70.1588 385.932 66.8072C388.803 63.4479 393.858 63.065 397.202 65.944L453.202 113.944C456.561 116.815 456.956 121.866 454.065 125.217C452.491 127.065 450.241 128.006 447.995 128.006Z" fill="white"/>
<path d="M447.994 128.006C445.748 128.006 443.498 127.065 441.924 125.209C439.041 121.858 439.428 116.807 442.787 113.936L498.787 65.936C502.154 63.0649 507.193 63.4477 510.064 66.8071C512.947 70.1586 512.561 75.2094 509.201 78.0805L453.201 126.081C451.689 127.377 449.834 128.006 447.994 128.006Z" fill="white"/>
<path d="M503.994 152.006C502.154 152.006 500.299 151.377 498.795 150.08L456.826 114.104C453.467 111.232 453.072 106.186 455.963 102.83C458.834 99.4629 463.888 99.0879 467.232 101.967L509.201 137.943C512.56 140.814 512.955 145.865 510.064 149.217C508.49 151.064 506.24 152.006 503.994 152.006Z" fill="white"/>
<path d="M391.995 152.006C389.749 152.006 387.499 151.064 385.925 149.209C383.042 145.857 383.429 140.807 386.788 137.936L428.788 101.936C432.14 99.0723 437.194 99.4316 440.058 102.799C442.94 106.15 442.554 111.201 439.194 114.072L397.194 150.072C395.69 151.377 393.835 152.006 391.995 152.006Z" fill="white"/>
<path d="M327.996 127.998C323.57 127.998 319.996 124.424 319.996 119.998C319.996 106.776 309.227 96.0061 295.996 96.0061C291.57 96.0061 287.996 92.4319 287.996 88.0061C287.996 83.5842 291.57 80.0061 295.996 80.0061C318.051 80.0061 335.996 97.9436 335.996 119.998C335.996 124.424 332.422 127.998 327.996 127.998Z" fill="white"/>
<path d="M295.996 96.0066C291.57 96.0066 287.996 92.4324 287.996 88.0066V56.0066C287.996 51.5847 291.57 48.0066 295.996 48.0066C300.422 48.0066 303.996 51.5847 303.996 56.0066V88.0066C303.996 92.4324 300.422 96.0066 295.996 96.0066Z" fill="white"/>
<path d="M183.997 128.006C179.572 128.006 175.998 124.431 175.998 120.006C175.998 80.303 208.294 48.0066 247.997 48.0066C252.422 48.0066 255.997 51.5847 255.997 56.0065C255.997 60.4322 252.422 64.0064 247.997 64.0064C217.126 64.0064 191.997 89.135 191.997 120.006C191.997 124.431 188.423 128.006 183.997 128.006Z" fill="white"/>
<path d="M327.988 152.209C326.453 152.209 324.891 151.759 323.516 150.838L299.516 134.638C295.852 132.158 294.891 127.193 297.356 123.529C299.836 119.873 304.797 118.912 308.469 121.369L332.469 137.568C336.133 140.049 337.094 145.017 334.629 148.681C333.086 150.974 330.555 152.209 327.988 152.209Z" fill="white"/>
<path d="M259.996 144.005C231.102 144.005 206.501 135.943 205.478 135.599C201.294 134.201 199.021 129.681 200.403 125.486C201.798 121.303 206.325 119.017 210.517 120.408C210.751 120.494 233.782 128.006 259.996 128.006C285.422 128.006 300.316 120.904 300.469 120.83C304.41 118.912 309.218 120.537 311.164 124.486C313.109 128.439 311.507 133.209 307.57 135.173C306.836 135.529 289.484 144.005 259.996 144.005Z" fill="white"/>
<path d="M184.005 152.209C181.439 152.209 178.908 150.974 177.365 148.689C174.892 145.025 175.861 140.056 179.525 137.576L203.525 121.377C207.205 118.912 212.166 119.873 214.638 123.537C217.111 127.201 216.142 132.166 212.478 134.646L188.478 150.849C187.103 151.767 185.541 152.209 184.005 152.209Z" fill="white"/>
<path d="M295.997 64.0066H247.997C243.571 64.0066 239.997 60.4324 239.997 56.0066C239.997 51.5847 243.571 48.0066 247.997 48.0066H295.997C300.423 48.0066 303.997 51.5847 303.997 56.0066C303.997 60.4324 300.423 64.0066 295.997 64.0066Z" fill="white"/>
</g>
<defs>
<clipPath id="clip0">
<rect width="512" height="512" fill="white"/>
</clipPath>
</defs>
</svg>
