<svg width="101" height="101" viewBox="0 0 101 101" fill="none" xmlns="http://www.w3.org/2000/svg">
<path d="M0 0V101H101V0H0ZM95.082 95.082H5.91797V5.91797H95.082V95.082Z" fill="white"/>
<path d="M42.0378 35.8235H27.7874V69.4375H34.3208V58.1697H42.2745C48.1 58.1697 52.7375 53.0974 52.7375 46.9966C52.7375 41.8204 48.5602 35.8235 42.0378 35.8235ZM41.8958 52.4411H34.3208V41.5521H41.6117C44.3847 41.5521 46.1094 44.156 46.1094 46.9966C46.1094 50.3028 44.1876 52.4411 41.8958 52.4411Z" fill="white"/>
<path d="M66.4666 54.5716C65.5509 54.3511 61.5902 53.7056 61.5902 51.4469C61.5902 49.637 63.0758 48.6537 65.3777 48.6537C68.5006 48.6537 71.3113 50.4527 72.574 51.3996L75.1305 47.5648C73.7732 46.3656 70.8678 44.156 65.4251 44.156C60.2401 44.156 55.6723 47.0972 55.6723 52.3465C55.6723 57.7989 62.9159 58.817 64.5255 59.2587C66.4503 59.7958 69.9701 60.4866 69.9701 62.6201C69.9701 64.358 68.3034 65.366 65.8985 65.366C62.1881 65.366 58.7023 63.1726 57.1873 62.0993L54.8201 66.0762C56.2404 67.3071 60.3141 69.911 66.0405 69.911C69.1335 69.911 76.0774 68.9444 76.0774 62.0519C76.0774 56.2208 68.171 55.0139 66.4666 54.5716Z" fill="white"/>
</svg>
