<svg width="101" height="101" viewBox="0 0 101 101" fill="none" xmlns="http://www.w3.org/2000/svg">
<path d="M97.8438 74.1719V7.89062C97.8423 6.63544 97.343 5.43208 96.4555 4.54453C95.5679 3.65698 94.3646 3.15771 93.1094 3.15625H7.89062C6.63544 3.15771 5.43208 3.65698 4.54453 4.54453C3.65698 5.43208 3.15771 6.63544 3.15625 7.89062V74.1719C3.15771 75.4271 3.65698 76.6304 4.54453 77.518C5.43208 78.4055 6.63544 78.9048 7.89062 78.9062H39.1683L36.5381 94.6875H29.9844C29.5658 94.6875 29.1644 94.8538 28.8685 95.1497C28.5725 95.4457 28.4062 95.8471 28.4062 96.2656C28.4062 96.6842 28.5725 97.0856 28.8685 97.3815C29.1644 97.6775 29.5658 97.8438 29.9844 97.8438H71.0156C71.4342 97.8438 71.8356 97.6775 72.1315 97.3815C72.4275 97.0856 72.5938 96.6842 72.5938 96.2656C72.5938 95.8471 72.4275 95.4457 72.1315 95.1497C71.8356 94.8538 71.4342 94.6875 71.0156 94.6875H64.4619L61.8317 78.9062H75.3667L89.0942 92.6338C89.9821 93.5216 91.1863 94.0204 92.4419 94.0204C93.6976 94.0204 94.9018 93.5216 95.7896 92.6338C96.6761 91.7452 97.174 90.5413 97.174 89.2861C97.174 88.0309 96.6761 86.827 95.7896 85.9384L88.7575 78.9062H93.1094C94.3646 78.9048 95.5679 78.4055 96.4555 77.518C97.343 76.6304 97.8423 75.4271 97.8438 74.1719ZM63.429 62.5048L65.6607 60.2729L72.3559 66.9681L70.124 69.2008L63.429 62.5048ZM60.7136 60.7566L56.403 59.679C55.5553 59.4695 54.7824 59.0287 54.1706 58.4057C53.5588 57.7827 53.132 57.002 52.938 56.1507L51.0273 47.871L59.3069 49.7818C60.1583 49.9758 60.939 50.4025 61.562 51.0143C62.185 51.6262 62.6258 52.399 62.8352 53.2467L63.9129 57.5574L60.7136 60.7566ZM67.0853 57.2345L65.897 52.4804C65.5478 51.0675 64.813 49.7795 63.7746 48.7598C62.7362 47.7402 61.435 47.029 60.0161 46.7056L49.277 44.2279C49.0162 44.1678 48.7443 44.1749 48.487 44.2487C48.2298 44.3225 47.9955 44.4605 47.8062 44.6497C47.6169 44.839 47.4789 45.0733 47.4051 45.3306C47.3313 45.5879 47.3242 45.8597 47.3844 46.1205L49.8628 56.8602C50.1238 57.9934 50.6321 59.0549 51.3512 59.9688H6.3125V18.9375H94.6875V59.9688H69.82L67.0853 57.2345ZM7.89062 6.3125H93.1094C93.5278 6.31297 93.9289 6.47939 94.2248 6.77524C94.5206 7.07109 94.687 7.47222 94.6875 7.89062V15.7812H6.3125V7.89062C6.31297 7.47222 6.47939 7.07109 6.77524 6.77524C7.07109 6.47939 7.47222 6.31297 7.89062 6.3125ZM61.262 94.6875H39.738L42.3681 78.9062H58.6319L61.262 94.6875ZM7.89062 75.75C7.47222 75.7495 7.07109 75.5831 6.77524 75.2873C6.47939 74.9914 6.31297 74.5903 6.3125 74.1719V63.125H57.1731L60.3897 63.9291L72.2105 75.75H7.89062ZM93.5578 90.4019C93.4112 90.5485 93.2372 90.6647 93.0458 90.744C92.8543 90.8233 92.6491 90.8642 92.4418 90.8642C92.2346 90.8642 92.0294 90.8233 91.8379 90.744C91.6464 90.6647 91.4724 90.5485 91.3259 90.4019L72.3559 71.4319L74.5877 69.2008L93.5578 88.1708C93.853 88.467 94.0188 88.8682 94.0188 89.2864C94.0188 89.7046 93.853 90.1057 93.5578 90.4019ZM72.9762 63.125H94.6875V74.1719C94.687 74.5903 94.5206 74.9914 94.2248 75.2873C93.9289 75.5831 93.5278 75.7495 93.1094 75.75H85.6012L72.9762 63.125Z" fill="white"/>
<path d="M53.6562 66.2812H47.3438C46.9252 66.2812 46.5238 66.4475 46.2278 66.7435C45.9319 67.0394 45.7656 67.4408 45.7656 67.8594C45.7656 68.2779 45.9319 68.6793 46.2278 68.9753C46.5238 69.2712 46.9252 69.4375 47.3438 69.4375H53.6562C54.0748 69.4375 54.4762 69.2712 54.7722 68.9753C55.0681 68.6793 55.2344 68.2779 55.2344 67.8594C55.2344 67.4408 55.0681 67.0394 54.7722 66.7435C54.4762 66.4475 54.0748 66.2812 53.6562 66.2812Z" fill="white"/>
<path d="M11.0469 12.625C11.9184 12.625 12.625 11.9184 12.625 11.0469C12.625 10.1753 11.9184 9.46875 11.0469 9.46875C10.1753 9.46875 9.46875 10.1753 9.46875 11.0469C9.46875 11.9184 10.1753 12.625 11.0469 12.625Z" fill="white"/>
<path d="M17.3594 12.625C18.2309 12.625 18.9375 11.9184 18.9375 11.0469C18.9375 10.1753 18.2309 9.46875 17.3594 9.46875C16.4878 9.46875 15.7812 10.1753 15.7812 11.0469C15.7812 11.9184 16.4878 12.625 17.3594 12.625Z" fill="white"/>
<path d="M23.6719 12.625C24.5434 12.625 25.25 11.9184 25.25 11.0469C25.25 10.1753 24.5434 9.46875 23.6719 9.46875C22.8003 9.46875 22.0938 10.1753 22.0938 11.0469C22.0938 11.9184 22.8003 12.625 23.6719 12.625Z" fill="white"/>
<path d="M20.5156 25.25H23.6719C24.0904 25.25 24.4918 25.0837 24.7878 24.7878C25.0837 24.4918 25.25 24.0904 25.25 23.6719C25.25 23.2533 25.0837 22.8519 24.7878 22.556C24.4918 22.26 24.0904 22.0938 23.6719 22.0938H20.5156C20.0971 22.0938 19.6957 22.26 19.3997 22.556C19.1038 22.8519 18.9375 23.2533 18.9375 23.6719C18.9375 24.0904 19.1038 24.4918 19.3997 24.7878C19.6957 25.0837 20.0971 25.25 20.5156 25.25Z" fill="white"/>
<path d="M29.9844 25.25H33.1406C33.5592 25.25 33.9606 25.0837 34.2565 24.7878C34.5525 24.4918 34.7188 24.0904 34.7188 23.6719C34.7188 23.2533 34.5525 22.8519 34.2565 22.556C33.9606 22.26 33.5592 22.0938 33.1406 22.0938H29.9844C29.5658 22.0938 29.1644 22.26 28.8685 22.556C28.5725 22.8519 28.4062 23.2533 28.4062 23.6719C28.4062 24.0904 28.5725 24.4918 28.8685 24.7878C29.1644 25.0837 29.5658 25.25 29.9844 25.25Z" fill="white"/>
<path d="M14.2031 53.6562H12.625V52.0781C12.625 51.6596 12.4587 51.2582 12.1628 50.9622C11.8668 50.6663 11.4654 50.5 11.0469 50.5C10.6283 50.5 10.2269 50.6663 9.93097 50.9622C9.63502 51.2582 9.46875 51.6596 9.46875 52.0781V55.2344C9.46875 55.6529 9.63502 56.0543 9.93097 56.3503C10.2269 56.6462 10.6283 56.8125 11.0469 56.8125H14.2031C14.6217 56.8125 15.0231 56.6462 15.319 56.3503C15.615 56.0543 15.7812 55.6529 15.7812 55.2344C15.7812 54.8158 15.615 54.4144 15.319 54.1185C15.0231 53.8225 14.6217 53.6562 14.2031 53.6562Z" fill="white"/>
<path d="M23.6719 53.6562H20.5156C20.0971 53.6562 19.6957 53.8225 19.3997 54.1185C19.1038 54.4144 18.9375 54.8158 18.9375 55.2344C18.9375 55.6529 19.1038 56.0543 19.3997 56.3503C19.6957 56.6462 20.0971 56.8125 20.5156 56.8125H23.6719C24.0904 56.8125 24.4918 56.6462 24.7878 56.3503C25.0837 56.0543 25.25 55.6529 25.25 55.2344C25.25 54.8158 25.0837 54.4144 24.7878 54.1185C24.4918 53.8225 24.0904 53.6562 23.6719 53.6562Z" fill="white"/>
<path d="M33.1406 53.6562H29.9844C29.5658 53.6562 29.1644 53.8225 28.8685 54.1185C28.5725 54.4144 28.4062 54.8158 28.4062 55.2344C28.4062 55.6529 28.5725 56.0543 28.8685 56.3503C29.1644 56.6462 29.5658 56.8125 29.9844 56.8125H33.1406C33.5592 56.8125 33.9606 56.6462 34.2565 56.3503C34.5525 56.0543 34.7188 55.6529 34.7188 55.2344C34.7188 54.8158 34.5525 54.4144 34.2565 54.1185C33.9606 53.8225 33.5592 53.6562 33.1406 53.6562Z" fill="white"/>
<path d="M42.6094 22.0938H39.4531C39.0346 22.0938 38.6332 22.26 38.3372 22.556C38.0413 22.8519 37.875 23.2533 37.875 23.6719C37.875 24.0904 38.0413 24.4918 38.3372 24.7878C38.6332 25.0837 39.0346 25.25 39.4531 25.25H41.0312V26.8281C41.0312 27.2467 41.1975 27.6481 41.4935 27.944C41.7894 28.24 42.1908 28.4062 42.6094 28.4062C43.0279 28.4062 43.4293 28.24 43.7253 27.944C44.0212 27.6481 44.1875 27.2467 44.1875 26.8281V23.6719C44.1875 23.2533 44.0212 22.8519 43.7253 22.556C43.4293 22.26 43.0279 22.0938 42.6094 22.0938Z" fill="white"/>
<path d="M42.6094 31.5625C42.1908 31.5625 41.7894 31.7288 41.4935 32.0247C41.1975 32.3207 41.0312 32.7221 41.0312 33.1406V36.2969C41.0312 36.7154 41.1975 37.1168 41.4935 37.4128C41.7894 37.7087 42.1908 37.875 42.6094 37.875C43.0279 37.875 43.4293 37.7087 43.7253 37.4128C44.0212 37.1168 44.1875 36.7154 44.1875 36.2969V33.1406C44.1875 32.7221 44.0212 32.3207 43.7253 32.0247C43.4293 31.7288 43.0279 31.5625 42.6094 31.5625Z" fill="white"/>
<path d="M42.6094 41.0312C42.1908 41.0312 41.7894 41.1975 41.4935 41.4935C41.1975 41.7894 41.0312 42.1908 41.0312 42.6094V45.7656C41.0312 46.1842 41.1975 46.5856 41.4935 46.8815C41.7894 47.1775 42.1908 47.3438 42.6094 47.3438C43.0279 47.3438 43.4293 47.1775 43.7253 46.8815C44.0212 46.5856 44.1875 46.1842 44.1875 45.7656V42.6094C44.1875 42.1908 44.0212 41.7894 43.7253 41.4935C43.4293 41.1975 43.0279 41.0312 42.6094 41.0312Z" fill="white"/>
<path d="M42.6094 50.5C42.1908 50.5 41.7894 50.6663 41.4935 50.9622C41.1975 51.2582 41.0312 51.6596 41.0312 52.0781V53.6562H39.4531C39.0346 53.6562 38.6332 53.8225 38.3372 54.1185C38.0413 54.4144 37.875 54.8158 37.875 55.2344C37.875 55.6529 38.0413 56.0543 38.3372 56.3503C38.6332 56.6462 39.0346 56.8125 39.4531 56.8125H42.6094C43.0279 56.8125 43.4293 56.6462 43.7253 56.3503C44.0212 56.0543 44.1875 55.6529 44.1875 55.2344V52.0781C44.1875 51.6596 44.0212 51.2582 43.7253 50.9622C43.4293 50.6663 43.0279 50.5 42.6094 50.5Z" fill="white"/>
<path d="M11.0469 28.4062C11.4654 28.4062 11.8668 28.24 12.1628 27.944C12.4587 27.6481 12.625 27.2467 12.625 26.8281V25.25H14.2031C14.6217 25.25 15.0231 25.0837 15.319 24.7878C15.615 24.4918 15.7812 24.0904 15.7812 23.6719C15.7812 23.2533 15.615 22.8519 15.319 22.556C15.0231 22.26 14.6217 22.0938 14.2031 22.0938H11.0469C10.6283 22.0938 10.2269 22.26 9.93097 22.556C9.63502 22.8519 9.46875 23.2533 9.46875 23.6719V26.8281C9.46875 27.2467 9.63502 27.6481 9.93097 27.944C10.2269 28.24 10.6283 28.4062 11.0469 28.4062Z" fill="white"/>
<path d="M11.0469 37.875C11.4654 37.875 11.8668 37.7087 12.1628 37.4128C12.4587 37.1168 12.625 36.7154 12.625 36.2969V33.1406C12.625 32.7221 12.4587 32.3207 12.1628 32.0247C11.8668 31.7288 11.4654 31.5625 11.0469 31.5625C10.6283 31.5625 10.2269 31.7288 9.93097 32.0247C9.63502 32.3207 9.46875 32.7221 9.46875 33.1406V36.2969C9.46875 36.7154 9.63502 37.1168 9.93097 37.4128C10.2269 37.7087 10.6283 37.875 11.0469 37.875Z" fill="white"/>
<path d="M11.0469 47.3438C11.4654 47.3438 11.8668 47.1775 12.1628 46.8815C12.4587 46.5856 12.625 46.1842 12.625 45.7656V42.6094C12.625 42.1908 12.4587 41.7894 12.1628 41.4935C11.8668 41.1975 11.4654 41.0312 11.0469 41.0312C10.6283 41.0312 10.2269 41.1975 9.93097 41.4935C9.63502 41.7894 9.46875 42.1908 9.46875 42.6094V45.7656C9.46875 46.1842 9.63502 46.5856 9.93097 46.8815C10.2269 47.1775 10.6283 47.3438 11.0469 47.3438Z" fill="white"/>
<path d="M58.3906 37.875H48.9219C48.5033 37.875 48.1019 38.0413 47.806 38.3372C47.51 38.6332 47.3438 39.0346 47.3438 39.4531C47.3438 39.8717 47.51 40.2731 47.806 40.569C48.1019 40.865 48.5033 41.0312 48.9219 41.0312H58.3906C58.8092 41.0312 59.2106 40.865 59.5065 40.569C59.8025 40.2731 59.9688 39.8717 59.9688 39.4531C59.9688 39.0346 59.8025 38.6332 59.5065 38.3372C59.2106 38.0413 58.8092 37.875 58.3906 37.875Z" fill="white"/>
<path d="M89.9531 37.875H64.7031C64.2846 37.875 63.8832 38.0413 63.5872 38.3372C63.2913 38.6332 63.125 39.0346 63.125 39.4531C63.125 39.8717 63.2913 40.2731 63.5872 40.569C63.8832 40.865 64.2846 41.0312 64.7031 41.0312H89.9531C90.3717 41.0312 90.7731 40.865 91.069 40.569C91.365 40.2731 91.5312 39.8717 91.5312 39.4531C91.5312 39.0346 91.365 38.6332 91.069 38.3372C90.7731 38.0413 90.3717 37.875 89.9531 37.875Z" fill="white"/>
<path d="M89.9531 44.1875H67.8594C67.4408 44.1875 67.0394 44.3538 66.7435 44.6497C66.4475 44.9457 66.2812 45.3471 66.2812 45.7656C66.2812 46.1842 66.4475 46.5856 66.7435 46.8815C67.0394 47.1775 67.4408 47.3438 67.8594 47.3438H89.9531C90.3717 47.3438 90.7731 47.1775 91.069 46.8815C91.365 46.5856 91.5312 46.1842 91.5312 45.7656C91.5312 45.3471 91.365 44.9457 91.069 44.6497C90.7731 44.3538 90.3717 44.1875 89.9531 44.1875Z" fill="white"/>
<path d="M89.9531 22.0938H48.9219C48.5033 22.0938 48.1019 22.26 47.806 22.556C47.51 22.8519 47.3438 23.2533 47.3438 23.6719V33.1406C47.3438 33.5592 47.51 33.9606 47.806 34.2565C48.1019 34.5525 48.5033 34.7188 48.9219 34.7188H89.9531C90.3717 34.7188 90.7731 34.5525 91.069 34.2565C91.365 33.9606 91.5312 33.5592 91.5312 33.1406V23.6719C91.5312 23.2533 91.365 22.8519 91.069 22.556C90.7731 22.26 90.3717 22.0938 89.9531 22.0938ZM88.375 31.5625H50.5V25.25H88.375V31.5625Z" fill="white"/>
<path d="M37.875 29.9844C37.875 29.5658 37.7087 29.1644 37.4128 28.8685C37.1168 28.5725 36.7154 28.4062 36.2969 28.4062H17.3594C16.9408 28.4062 16.5394 28.5725 16.2435 28.8685C15.9475 29.1644 15.7812 29.5658 15.7812 29.9844V48.9219C15.7812 49.3404 15.9475 49.7418 16.2435 50.0378C16.5394 50.3337 16.9408 50.5 17.3594 50.5H36.2969C36.7154 50.5 37.1168 50.3337 37.4128 50.0378C37.7087 49.7418 37.875 49.3404 37.875 48.9219V29.9844ZM34.7188 47.3438H18.9375V31.5625H34.7188V47.3438Z" fill="white"/>
</svg>
